<?xml version="1.0" encoding="utf-8"?>
<!-- Generator: Adobe Illustrator 25.0.0, SVG Export Plug-In . SVG Version: 6.00 Build 0)  -->
<svg version="1.1" id="Calque_1" xmlns="http://www.w3.org/2000/svg" xmlns:xlink="http://www.w3.org/1999/xlink" x="0px" y="0px"
	 viewBox="0 0 1280 720" style="enable-background:new 0 0 1280 720;" xml:space="preserve">
<style type="text/css">
	.st0{fill:none;}
	.st1{fill:#5058A0;}
	.st2{fill:#040C8C;}
	.st3{fill:#F08004;}
	.st4{fill:#F06004;}
</style>
<g>
	<polygon class="st0" points="835.4,176.9 850.4,186.9 855.4,161.9 831.8,165.4 821.5,163.5 825,175 	"/>
	<polygon class="st0" points="1006.1,476.6 1001.1,491.6 1015,490 1011.5,478.5 1016.5,458.5 1001.5,463.5 989.6,453.1 997.8,479.7 
			"/>
	<polygon class="st0" points="900,75 910,80 921.5,83.5 926.5,63.5 927.9,40 906.5,43.5 911.5,63.5 900,60 885,60 870,60 870,80 
		885,75 	"/>
	<polygon class="st0" points="675,685 675,660 680,640 660,645 643.5,648.5 627.1,635 636.7,661.9 629.6,681.9 615,705 640,690 
		665,705 650,680 	"/>
	<polygon class="st0" points="640,590 650,595 650,580 640,580 630,580 630,595 	"/>
	<polygon class="st0" points="255,390 245,390 230,385 230,400 245,400 255,400 270,405 270,385 	"/>
	<polygon class="st0" points="885,40 895,40 906.5,43.5 910,25 895,30 885,30 870,25 870,40 	"/>
	<polygon class="st0" points="650,560 650,545 640,550 630,545 630,560 640,560 	"/>
	<polygon class="st0" points="970,260 985,260 996.5,256.5 1006.8,258.4 1006.5,241.5 1010,230 1000,230 1000,245 988.5,243.5 
		970,240 960,220 940,210 935,195 931.5,181.5 941.1,163.4 929.2,163.8 904.6,156.9 914.6,186.9 929.6,186.9 925,195 920,210 
		920,235 915,260 945,260 	"/>
	<polygon class="st0" points="335.4,566.9 315,565 320,580 338.9,585.4 	"/>
	<polygon class="st0" points="630,160 630,175 640,170 650,175 650,160 640,160 	"/>
	<polygon class="st0" points="960,420 951.5,408.5 960,385 985,380 1010,385 1000,360 1010,335 985,340 960,335 951.5,311.5 
		960,300 943.5,308.5 925,305 930,315 940,310 940,330 920,335 920,360 920,385 940,390 940,410 930,405 925,415 943.5,411.5 	"/>
	<polygon class="st0" points="341.5,671.5 370,675 360,655 380,660 395,660 410,660 410,640 395,645 380,645 360,640 345,640 
		328.5,643.5 320,660 341.5,651.5 	"/>
	<polygon class="st0" points="395,680 385,680 370,675 370,695 385,690 395,690 410,695 410,680 	"/>
	<polygon class="st0" points="701.9,102.5 696.5,76.5 676.5,76.5 675,92.9 	"/>
	<polygon class="st0" points="905,205 914.6,186.9 880,190 850.4,186.9 865,210 885,210 881.5,218.5 900,215 	"/>
	<polygon class="st0" points="880,160 881.5,136.5 857.9,132.9 855.4,161.9 	"/>
	<polygon class="st0" points="1015,160 1010,175 990,175 995,170 1000,157.1 972.9,152.1 985,165 988.5,178.5 980,195 991.5,196.5 
		1010,205 1027.9,192.9 1056.5,194.4 1060,167.9 1055,150 1035,155 1040.4,141.1 1025.4,153.2 	"/>
	<polygon class="st0" points="926.8,105.4 918.5,103.5 903.5,93.5 910.4,113.9 901.9,130.4 923,128.8 921.9,115.4 931.8,118.4 
		948.3,129 948.3,109 	"/>
	<polygon class="st0" points="996.5,123.5 1004.6,98.1 980,107.1 969.4,130.6 	"/>
	<polygon class="st0" points="1050,335 1060,360 1050,385 1065,380 1086.5,383.5 1086.5,356.5 1087.9,332.9 1070,340 	"/>
	<polygon class="st0" points="956.5,143.5 941.1,138.4 941.1,163.4 961.5,156.5 	"/>
	<polygon class="st0" points="969.4,130.6 948.3,129 956.5,143.5 972.9,152.1 	"/>
	<polygon class="st0" points="756.2,570.8 736.5,571.5 733.5,592.3 728.8,615.4 760,620 756.2,590.8 	"/>
	<polygon class="st0" points="1044.6,81.1 1049.6,61.1 1053.5,51.5 1077.3,51.5 1077.3,31.5 1058.9,35.4 1043.5,38.5 1023.5,38.5 
		1027.1,52.1 1032.1,67.1 1008.5,56.5 1016.7,78.1 1004.6,98.1 1025.7,87.6 1044.6,93.1 1035,75 	"/>
	<polygon class="st0" points="1087.1,172.9 1089,193.3 1105.4,191.8 1093.5,181.5 	"/>
	<polygon class="st0" points="960,220 980,220 980,195 958.5,203.5 	"/>
	<polygon class="st0" points="1054.6,308.2 1054.6,295.2 1029.9,290.1 1038.1,309.6 	"/>
	<polygon class="st0" points="1141.1,65.4 1161.1,75.4 1151.5,53.5 1126.8,45.4 1120,35 1120,55 	"/>
	<polygon class="st0" points="1075,60 1100,55 1106.5,42.7 1077.3,51.5 	"/>
	<polygon class="st0" points="1056.5,226.5 1058.5,241.5 1087.1,245 1081.9,225.4 	"/>
	<polygon class="st0" points="1125,80 1125,100 1147.1,105 1144.6,86.9 	"/>
	<polygon class="st0" points="1025,390 1010,385 1010,405 1025,400 1035,400 1050,400 1050,385 1035,390 	"/>
	<polygon class="st0" points="1035,330 1050,335 1050,320 1035,325 1025,325 1010,315 1010,335 1025,330 	"/>
	<polygon class="st0" points="1178.1,79.6 1206.6,73.2 1212.3,44.6 1182.7,56.5 	"/>
	<polygon class="st0" points="981.5,311.5 1010,315 995,295 1015,305 1010.4,281.9 995,280 985,280 968.5,283.5 960,300 
		981.5,291.5 	"/>
	<polygon class="st0" points="130.1,50.1 132.8,72.4 119.6,86.9 148.2,78.4 140,97.9 158.9,87.5 173.9,99.6 166.8,74.6 166.9,74.6 
		166.9,74.5 191.3,73 192.9,72.9 192.9,72.9 193,72.9 193,57.9 213,60 216.5,53.5 211.5,33.5 196.5,28.5 200,50 192.9,57.9 
		172.9,65 172.9,52.1 156.5,50.6 149,51.7 150.4,28.2 120.4,28.2 	"/>
	<polygon class="st0" points="30,360 25,375 35,370 	"/>
	<polygon class="st0" points="242.9,80 237.9,80 234.9,93.8 253.1,95.4 	"/>
	<polygon class="st0" points="35,350 25,345 30,360 	"/>
	<polygon class="st0" points="1250,360 1255,345 1245,350 	"/>
	<polygon class="st0" points="169.4,694.4 174.8,668.3 161.9,668.3 156.5,694.4 	"/>
	<polygon class="st0" points="260.4,38.1 268.5,16.5 240,30 231.9,51.6 228.4,65.1 251.9,61.6 251.9,61.6 251.8,61.6 	"/>
	<polygon class="st0" points="131.5,116.5 140,97.9 118.5,101.5 123.5,121.5 112.9,140 133.4,126.8 	"/>
	<polygon class="st0" points="118.5,101.5 119.6,86.9 98.5,86.5 101.1,75.4 71.8,61.6 83.5,81.5 78.5,101.5 97.1,92.9 	"/>
	<polygon class="st0" points="1245,370 1255,375 1250,360 	"/>
	<polygon class="st0" points="320,300 328.5,311.5 320,335 295,340 270,335 280,360 270,385 295,380 320,385 328.5,408.5 320,420 
		336.5,411.5 355,415 350,405 340,410 340,390 360,385 360,360 360,335 340,330 340,310 350,315 355,305 336.5,308.5 	"/>
	<polygon class="st0" points="255,330 270,335 270,315 255,320 245,320 230,320 230,335 245,330 	"/>
	<polygon class="st0" points="393.5,56.5 373.2,58.4 393.5,56.5 	"/>
	<polygon class="st0" points="176.5,131.5 156.9,135.4 162.7,149.1 171.8,158.4 172,158.4 171.9,158.4 	"/>
	<polygon class="st0" points="400,60 393.6,56.6 393.6,78.4 400,75 410,80 410,60 	"/>
	<polygon class="st0" points="191.5,116.5 195,105 173.9,99.6 188.2,114.6 176.5,131.5 193,123 	"/>
	<polygon class="st0" points="388.5,36.5 395,40 410,40 410,25 395,30 385,30 368.5,21.5 376.7,34.8 	"/>
	<polygon class="st0" points="310,460 295,460 283.5,463.5 263.5,458.5 268.5,478.5 265,490 280,490 280,475 291.5,476.5 310,480 
		316.5,496.5 336.5,496.5 363.5,496.5 360,480 365,460 335,460 	"/>
	<polygon class="st0" points="640,130 630,125 630,140 640,140 650,140 645,125 	"/>
	<polygon class="st0" points="940,555 940,580 960,580 961.5,563.5 	"/>
	<polygon class="st0" points="721.9,109.6 701.9,102.5 712.5,121.1 714,144.6 732.1,145 720.8,124.2 	"/>
	<polygon class="st0" points="960,517.1 958.5,526.5 980,530 984.6,510.2 	"/>
	<polygon class="st0" points="935,640 920,640 900,645 885,645 870,640 870,660 885,660 900,660 920,655 910,675 938.5,671.5 
		938.5,651.5 960,660 951.5,643.5 	"/>
	<polygon class="st0" points="245,300 260,300 280,295 270,315 298.5,311.5 298.5,291.5 320,300 311.5,283.5 295,280 280,280 
		260,285 245,285 230,280 230,300 	"/>
	<polygon class="st0" points="895,680 885,680 870,680 870,695 885,690 895,690 910,695 910,675 	"/>
	<polygon class="st0" points="260,435 280,440 295,440 311.5,436.5 320,420 298.5,428.5 298.5,408.5 270,405 280,425 260,420 
		245,420 230,420 230,440 245,435 	"/>
	<polygon class="st0" points="316.5,496.5 300,500 298.9,526.6 311.8,514.6 	"/>
	<polygon class="st0" points="230,385 220,360 230,335 205,340 180,340 180,360 180,380 205,380 	"/>
	<polygon class="st0" points="1035,420 1020,420 1000,425 1010,405 981.5,408.5 981.5,428.5 960,420 968.5,426.5 985,435 1000,440 
		1020,435 1035,435 1050,440 1050,420 	"/>
	<polygon class="st0" points="1093.4,408.2 1101.9,424.6 1130.1,430.1 1126.5,413.6 	"/>
	<polygon class="st0" points="605,35 605,60 600,80 620,75 640,70 660,75 676.5,76.5 675,60 675,35 650,40 665,15 640,30 615,15 
		630,40 	"/>
	<polygon class="st0" points="340,165 340,140 320,140 318.5,156.5 	"/>
	<polygon class="st0" points="230,118.8 229.9,118.7 203.3,114.8 217.5,126 244.6,143.1 229.9,118.8 	"/>
	<polygon class="st0" points="320,220 321.5,203.5 300,195 300,220 	"/>
	<polygon class="st1" points="50.6,30.6 40,0 20,0 0,0 0,20 23.5,28.5 	"/>
	<polygon class="st1" points="211.5,33.5 220,0 200,0 180,0 172.9,27.1 196.5,28.5 	"/>
	<polygon class="st1" points="395,30 410,25 420,0 400,0 380,0 360,0 368.5,21.5 385,30 	"/>
	<polygon class="st1" points="500,30 525,30 520,0 500,0 480,0 460,0 460,20 480,25 	"/>
	<polygon class="st1" points="665,15 660,0 640,0 620,0 615,15 640,30 	"/>
	<polygon class="st1" points="800,0 780,0 760,0 755,30 780,30 800,25 820,20 820,0 	"/>
	<polygon class="st1" points="895,30 910,25 920,0 900,0 880,0 860,0 870,25 885,30 	"/>
	<polygon class="st1" points="1077.3,31.5 1108.4,27.3 1100,0 1080,0 1060,0 1058.9,35.4 	"/>
	<polygon class="st1" points="1260,0 1240,0 1229.4,30.6 1256.5,28.5 1280,20 1280,0 	"/>
	<polygon class="st1" points="268.5,16.5 260.4,38.1 251.8,61.6 251.9,61.6 284.6,53.1 284.7,53 293.2,36.6 303.5,44.7 303.5,28.5 
		287.1,15 280,0 260,0 240,0 240,30 	"/>
	<polygon class="st1" points="675,35 675,60 676.5,76.5 696.5,76.5 724.6,81.9 725,55 753.5,56.5 750,40 725,35 725,10 700,20 
		700,0 680,0 675,10 665,15 650,40 	"/>
	<polygon class="st1" points="927.9,40 926.5,63.5 956.5,56.5 956.8,38.4 948.3,14.8 931.5,16.5 910,25 906.5,43.5 	"/>
	<polygon class="st1" points="101.1,75.4 132.8,72.4 130.1,50.1 120.4,28.2 120,0 100,0 86.5,16.5 66.5,16.5 63.3,38.1 97.5,41.9 	
		"/>
	<polygon class="st1" points="344.6,61.9 343.2,33.4 376.7,34.8 368.5,21.5 343.5,11.5 320,20 310.5,38 310.4,38.1 310.4,38.1 
		318.8,54.5 318.9,54.6 	"/>
	<polygon class="st1" points="395,40 388.5,36.5 376.7,34.8 373.2,58.4 393.5,56.5 393.5,56.5 393.6,56.6 400,60 410,60 410,80 
		435,85 435,60 465,60 465,40 460,20 435,20 410,25 410,40 	"/>
	<polygon class="st1" points="885,60 900,60 911.5,63.5 906.5,43.5 895,40 885,40 870,40 870,25 845,20 820,20 815,40 815,60 
		845,60 845,85 870,80 870,60 	"/>
	<polygon class="st1" points="1007.1,47.1 1008.5,56.5 1032.1,67.1 1027.1,52.1 1023.5,38.5 1043.5,38.5 1040,0 1020,0 1000,0 
		1003.5,28.5 971.8,18.4 983.9,45.4 	"/>
	<polygon class="st1" points="1161.1,75.4 1178.1,79.6 1182.7,56.5 1212.3,44.6 1218.9,18.1 1185.7,21.5 1180,0 1160,0 1146.5,21.5 
		1151.5,53.5 	"/>
	<polygon class="st1" points="483.5,76.5 493.5,56.5 465,60 460,85 	"/>
	<polygon class="st1" points="560,90 580,85 600,80 605,60 605,35 630,40 615,15 605,10 600,0 580,0 580,20 555,10 555,35 530,40 
		526.5,56.5 555,60 	"/>
	<polygon class="st1" points="796.5,76.5 820,85 815,60 786.5,56.5 	"/>
	<polygon class="st1" points="192.9,72.9 192.9,72.9 191.3,73 166.9,74.6 166.8,74.6 173.9,99.6 195,105 	"/>
	<polygon class="st1" points="500,100 503.5,66.5 483.5,76.5 475,100 	"/>
	<polygon class="st1" points="547.1,112.1 560,117.1 560,90 536.5,81.5 	"/>
	<polygon class="st1" points="675,92.9 676.5,76.5 660,75 640,70 620,75 600,80 595,100 595,120 595,140 630,140 630,125 640,130 
		645,125 650,140 680.4,148.2 677.1,120 	"/>
	<polygon class="st1" points="741.9,104.6 748.2,78.4 724.6,81.9 721.9,109.6 	"/>
	<polygon class="st1" points="780,100 805,100 796.5,76.5 776.5,66.5 	"/>
	<polygon class="st1" points="1073.1,84.6 1074.6,118.2 1097.9,112.1 1105,80 	"/>
	<polygon class="st1" points="12.9,87.9 12.9,107.9 40,112.9 36.5,84.4 	"/>
	<polygon class="st1" points="253.1,95.4 265.2,127.5 230,118.8 229.9,118.8 244.6,143.1 267.1,152.1 272.1,160 273.5,176.5 
		290,175 285,165 283.5,153.5 292.1,132.1 292.1,132 287.1,107.1 	"/>
	<polygon class="st1" points="527.1,137.1 523.5,103.5 500,100 508.5,128.5 	"/>
	<polygon class="st1" points="761.9,136.7 771.5,128.5 780,100 761.9,104.6 	"/>
	<polygon class="st1" points="1267.1,87.9 1240,82.9 1240,107.9 1267.1,107.9 	"/>
	<polygon class="st1" points="480,120 455,115 460,140 490,140 	"/>
	<polygon class="st1" points="800,120 790,140 816.5,138.5 825,115 	"/>
	<polygon class="st1" points="880,160 904.6,156.9 929.2,163.8 941.1,163.4 941.1,138.4 956.5,143.5 948.3,129 931.8,118.4 
		921.9,115.4 923,128.8 901.9,130.4 910.4,113.9 903.5,93.5 918.5,103.5 926.8,105.4 948.3,109 980,107.1 1004.6,98.1 1016.7,78.1 
		1008.5,56.5 985,52.9 956.5,56.5 947.9,80 921.5,83.5 910,80 900,75 885,75 870,80 860,95 880,85 881.5,106.5 852.9,107.9 
		857.9,132.9 881.5,136.5 	"/>
	<polygon class="st1" points="1025.7,87.6 1004.6,98.1 996.5,123.5 1000,157.1 995,170 990,175 1010,175 1015,160 1025.4,153.2 
		1040.4,141.1 1055.1,119.2 1026.5,122.7 	"/>
	<polygon class="st1" points="224.6,160.2 255.2,161.6 244.6,143.2 244.6,143.1 217.5,126 	"/>
	<polygon class="st1" points="340,165 351.5,163.5 375,155 400,160 395,135 420,135 420,115 395,115 400,95 420,100 410,80 400,75 
		393.6,78.4 393.5,78.5 372.1,87.1 345,87.1 321.5,83.5 318.9,54.6 303.5,47.6 303.5,47.6 303.5,47.6 284.6,53.1 273.5,78.5 
		287.1,107.1 287.1,107.1 310,107.1 321.5,110.6 343.5,115.6 343.6,115.6 363.5,115.6 363.6,115.5 380,102.1 371.5,118.5 375,130 
		360,130 360,120 347.1,125 328.5,123.5 320,140 340,140 	"/>
	<polygon class="st1" points="440,140 445,165 455,165 460,140 	"/>
	<polygon class="st1" points="630,140 630,160 640,160 650,160 650,140 640,140 	"/>
	<polygon class="st1" points="832.9,135 816.5,138.5 821.5,163.5 831.8,165.4 	"/>
	<polygon class="st1" points="1055,150 1062.1,127.9 1040.4,141.1 1035,155 	"/>
	<polygon class="st1" points="1263.5,131.5 1247.1,127.9 1240,107.9 1211,103.3 1217,124.9 1215.4,158.1 1206.8,185.4 1245,180 
		1235,195 1272.1,187.9 1277.1,180 1280,180 1280,160 1272.1,160 	"/>
	<polygon class="st1" points="188.5,176.5 196,191.7 218.1,196.7 224.6,160.2 189.4,158.5 172,158.4 171.8,158.4 162.7,149.1 
		164.4,170.2 154.3,205.3 193.2,199.6 	"/>
	<polygon class="st1" points="1087.1,172.9 1093.5,181.5 1105.4,191.8 1128.5,203.5 1117.1,180 1125.6,149.4 1098.5,156.5 1080,150 
		1055,150 1060,167.9 	"/>
	<polygon class="st1" points="40,180 72.1,187.1 68.5,163.5 68.5,136.5 67.1,112.9 40,112.9 40,140 20,135 20,165 0,160 0,180 
		10,185 13.5,196.5 45,200 	"/>
	<polygon class="st1" points="463.5,203.5 490.6,210.6 483.5,183.5 485,160 455,165 455,175 445,175 425,180 415,205 440,205 	"/>
	<polygon class="st1" points="640,170 630,175 630,160 595,160 600,180 569.6,171.8 578.1,188.3 581.5,216.5 579.6,253.2 
		613.5,248.5 613.5,216.5 625,225 620,195 640,190 660,195 660,225 680,220 680,247.1 710.6,250.6 708.5,223.5 708.5,196.5 
		713.2,178.4 680,180 681.9,164.6 650,160 650,175 	"/>
	<polygon class="st1" points="835.4,176.9 825,175 821.5,163.5 795,160 796.5,183.5 789.4,210.6 816.5,203.5 840,205 865,210 
		850.4,186.9 	"/>
	<polygon class="st1" points="985,165 972.9,152.1 956.5,143.5 961.5,156.5 941.1,163.4 931.5,181.5 935,195 940,210 960,220 
		958.5,203.5 980,195 988.5,178.5 	"/>
	<polygon class="st1" points="13.5,196.5 0,200 0,220 23.5,216.5 	"/>
	<polygon class="st1" points="184.6,233.1 204.6,223.1 207.7,202.7 193.2,199.6 	"/>
	<polygon class="st1" points="320,220 340,210 345,195 348.5,181.5 340,165 318.5,156.5 320,140 300,150 295,165 291.5,178.5 
		300,195 321.5,203.5 	"/>
	<polygon class="st1" points="415,205 395,205 398.5,218.5 422.1,232.1 	"/>
	<polygon class="st1" points="865,210 857.9,232.1 881.5,218.5 885,210 	"/>
	<polygon class="st1" points="1081.9,225.4 1111.9,220.4 1105.4,191.8 1089,193.3 	"/>
	<polygon class="st1" points="1280,220 1280,200 1272.1,187.9 1272.1,215 	"/>
	<polygon class="st1" points="160,245 185,250 184.6,233.1 150.4,231.9 	"/>
	<polygon class="st1" points="920,210 925,195 929.6,186.9 914.6,186.9 905,205 900,215 881.5,218.5 869.4,245.6 896.5,238.5 
		887.9,267.1 915,260 920,235 	"/>
	<polygon class="st1" points="1125,240 1140,220 1111.9,220.4 1103.5,248.5 	"/>
	<polygon class="st1" points="1272.1,215 1233.9,220.4 1228.9,245.4 1230,260 1240,290 1268.5,293.5 1280,280 1280,260 1280,240 
		1263.5,243.5 	"/>
	<polygon class="st1" points="50,240 50,220 23.5,216.5 24.6,238.1 0,240 0,260 0,280 20,285 35,280 40,260 	"/>
	<polygon class="st1" points="116.5,221.5 128.5,253.5 143.5,258.5 131.5,231.5 	"/>
	<polygon class="st1" points="383.5,238.5 410.6,245.6 398.5,218.5 380,215 375,205 370,185 350,185 355,195 360,210 360,235 
		365,260 392.1,267.1 	"/>
	<polygon class="st1" points="627.1,272.1 632.1,252.1 613.5,248.5 603.5,278.5 	"/>
	<polygon class="st1" points="652.9,272.1 680,277.1 680,247.1 652.9,252.1 	"/>
	<polygon class="st1" points="1167.1,222.9 1148.5,231.5 1140,260 1163.5,256.5 	"/>
	<polygon class="st1" points="74.6,241.8 72.9,280 108.5,283.5 103.1,245.4 	"/>
	<polygon class="st1" points="143.5,258.5 140,292.1 156.5,283.5 165,260 	"/>
	<polygon class="st1" points="260,285 280,280 295,280 311.5,283.5 320,300 336.5,308.5 355,305 370,285 365,260 335,260 310,260 
		295,260 283.5,256.5 263.5,261.5 268.5,241.5 265,230 280,230 280,245 291.5,243.5 310,240 320,220 300,220 300,195 288.5,196.5 
		265,205 240,205 245,225 220,225 220,245 245,245 240,265 220,260 230,280 245,285 	"/>
	<rect x="435" y="255" class="st1" width="30" height="30"/>
	<rect x="815" y="255" class="st1" width="30" height="30"/>
	<polygon class="st1" points="1140,260 1115,260 1123.5,283.5 1143.5,288.5 	"/>
	<polygon class="st1" points="1187.1,247.9 1175.4,273.1 1196.5,271.5 1196.5,244.4 	"/>
	<polygon class="st1" points="156.5,283.5 146.5,303.5 175,300 180,275 	"/>
	<polygon class="st1" points="960,300 968.5,283.5 985,280 995,280 1010.4,281.9 1029.9,290.1 1054.6,295.2 1058.5,263.5 
		1021.8,265.4 1025,245 1058.5,241.5 1056.5,226.5 1026.5,221.5 1027.9,192.9 1010,205 991.5,196.5 980,195 980,220 960,220 
		970,240 988.5,243.5 1000,245 1000,230 1010,230 1006.5,241.5 1006.8,258.4 996.5,256.5 985,260 970,260 945,260 915,260 910,285 
		925,305 943.5,308.5 	"/>
	<polygon class="st1" points="1123.5,283.5 1103.5,276.5 1105,300 1130.4,298.9 	"/>
	<polygon class="st1" points="1196.5,271.5 1198.1,295.4 1173.5,293.5 1178.1,315.4 1203.1,315.4 1205,345 1230,340 1225,360 
		1220,380 1195,375 1195,395 1170,400 1166.5,416.5 1195,420 1200,450 1220,445 1240,440 1245,420 1245,395 1270,400 1255,375 
		1245,370 1250,360 1245,350 1255,345 1270,320 1245,325 1245,310 1240,290 1211.5,281.5 	"/>
	<polygon class="st1" points="1054.6,308.2 1038.1,309.6 1015,305 995,295 1010,315 1025,325 1035,325 1050,320 1050,335 1070,340 
		1087.9,332.9 1101.5,316.5 1105,300 1076.5,303.5 1083.5,283.5 1054.6,295.2 	"/>
	<polygon class="st1" points="230,335 230,320 245,320 255,320 270,315 280,295 260,300 245,300 230,300 230,280 205,275 205,300 
		175,300 175,320 180,340 205,340 	"/>
	<polygon class="st1" points="295,340 320,335 328.5,311.5 320,300 298.5,291.5 298.5,311.5 270,315 270,335 	"/>
	<polygon class="st1" points="340,310 340,330 360,335 360,360 360,385 340,390 340,410 350,405 355,415 387.1,427.1 378.5,403.5 
		380,380 400,385 400,360 400,335 380,340 378.5,316.5 387.1,292.9 355,305 350,315 	"/>
	<polygon class="st1" points="981.5,311.5 981.5,291.5 960,300 951.5,311.5 960,335 985,340 1010,335 1010,315 	"/>
	<polygon class="st1" points="25,345 0,340 0,360 0,380 25,375 30,360 	"/>
	<polygon class="st1" points="180,340 160,335 140,330 115,330 110,360 115,390 140,390 160,385 180,380 180,360 	"/>
	<polygon class="st1" points="550,340 575,340 578.5,316.5 548.5,311.5 543.5,281.5 516.5,281.5 511.5,311.5 510,340 510,360 
		513.1,375.4 523.5,403.5 527.4,437.8 547.1,437.1 552.1,407.1 578.5,403.5 575,380 550,380 550,360 	"/>
	<polygon class="st1" points="663.5,331.5 640,330 616.5,331.5 589.4,329.4 592.9,360 589.4,390.6 616.5,388.5 640,390 663.5,388.5 
		690.6,390.6 687.1,360 690.6,329.4 	"/>
	<polygon class="st1" points="1050,335 1035,330 1025,330 1010,335 1000,360 1010,385 1025,390 1035,390 1050,385 1060,360 	"/>
	<polygon class="st1" points="255,390 270,385 280,360 270,335 255,330 245,330 230,335 220,360 230,385 245,390 	"/>
	<polygon class="st1" points="420,360 420,390 443.5,388.5 467.1,387.1 467.1,360 470.6,329.4 443.5,331.5 420,330 	"/>
	<polygon class="st1" points="730,380 705,380 701.5,403.5 731.5,408.5 736.5,438.5 763.5,438.5 768.5,408.5 770,380 770,360 
		770,340 768.5,311.5 763.5,281.5 736.5,281.5 731.5,311.5 701.5,316.5 705,340 730,340 730,360 	"/>
	<polygon class="st1" points="836.5,388.5 860,390 860,360 860,330 836.5,331.5 809.4,329.4 812.9,360 809.4,390.6 	"/>
	<polygon class="st1" points="1111,333.3 1087.9,332.9 1086.5,356.5 1086.5,383.5 1121.1,385.4 1146.5,391.5 1166.9,394.6 1175,365 
		1173.5,336.5 1146.6,336.8 	"/>
	<polygon class="st1" points="1255,375 1280,380 1280,360 1280,340 1255,345 1250,360 	"/>
	<polygon class="st1" points="320,385 295,380 270,385 270,405 298.5,408.5 298.5,428.5 320,420 328.5,408.5 	"/>
	<polygon class="st1" points="940,410 940,390 920,385 920,360 920,335 940,330 940,310 930,315 925,305 892.9,292.9 901.5,316.5 
		900,340 880,335 880,360 880,385 900,380 901.5,403.5 892.9,427.1 925,415 930,405 	"/>
	<polygon class="st1" points="985,380 960,385 951.5,408.5 960,420 981.5,428.5 981.5,408.5 1010,405 1010,385 	"/>
	<polygon class="st1" points="1086.5,383.5 1065,380 1050,385 1050,400 1035,400 1025,400 1010,405 1000,425 1020,420 1035,420 
		1050,420 1050,440 1075,445 1075,420 1101.9,424.6 1093.4,408.2 	"/>
	<polygon class="st1" points="245,420 260,420 280,425 270,405 255,400 245,400 230,400 230,385 205,380 180,380 175,400 175,420 
		205,420 205,445 230,440 230,420 	"/>
	<polygon class="st1" points="72.9,280 47.9,280 35,280 35,300 35,325 10,320 25,345 35,350 30,360 35,370 25,375 10,400 35,395 
		35,420 40,440 60,445 80,450 85,420 113.5,416.5 110,400 85,395 85,370 60,380 60,360 60,340 85,350 83.5,328.5 108.5,323.5 
		112.1,312.1 80,312.1 	"/>
	<polygon class="st1" points="156.5,436.5 180,445 175,420 146.5,416.5 	"/>
	<polygon class="st1" points="1100,445 1124.6,441.9 1130.1,430.1 1101.9,424.6 	"/>
	<polygon class="st1" points="92.9,472.1 103.5,441.5 80,450 80,477.1 	"/>
	<polygon class="st1" points="140,460 165,460 156.5,436.5 136.5,426.5 	"/>
	<polygon class="st1" points="461.5,438.5 435,435 435,465 465,465 	"/>
	<rect x="815" y="435" class="st1" width="30" height="30"/>
	<polygon class="st1" points="1020,435 1000,440 985,435 968.5,426.5 960,420 943.5,411.5 925,415 910,435 910,460 936.9,450.4 
		966.5,443.5 989.6,453.1 1001.5,463.5 1016.5,458.5 1011.5,478.5 1015,490 1001.1,491.6 1006.1,476.6 997.8,479.7 966.5,480.5 
		960,517.1 984.6,510.2 980,530 991.5,523.5 1015,515 1040,520 1035,495 1060,495 1060,475 1035,475 1040,455 1060,460 1050,440 
		1035,435 	"/>
	<polygon class="st1" points="1140,460 1144.6,431.9 1124.6,441.9 1115,460 	"/>
	<polygon class="st1" points="1187.1,472.1 1200,477.1 1200,450 1176.5,441.5 	"/>
	<polygon class="st1" points="112.9,497.1 131.5,488.5 140,460 116.5,463.5 	"/>
	<polygon class="st1" points="627.1,447.9 600,442.9 600,472.9 627.1,467.9 	"/>
	<polygon class="st1" points="652.9,447.9 652.9,467.9 680,472.9 680,442.9 	"/>
	<polygon class="st1" points="896.5,481.5 869.4,474.4 881.5,501.5 900,505 905,515 910,535 930,535 925,525 916.5,508.5 
		911.5,483.5 910,460 887.9,452.9 	"/>
	<polygon class="st1" points="1167.1,497.1 1163.5,463.5 1140,460 1148.5,488.5 	"/>
	<polygon class="st1" points="1235,480 1235,500 1270,500 1270,485 1280,480 1280,460 1280,440 1260,435 1240,440 1235,460 	"/>
	<polygon class="st1" points="0,440 0,460 0,480 10,485 10,500 45,500 45,480 45,460 40,440 20,435 	"/>
	<polygon class="st1" points="160,480 150,500 180,500 185,475 	"/>
	<polygon class="st1" points="316.5,496.5 310,480 291.5,476.5 280,475 280,490 265,490 268.5,478.5 263.5,458.5 283.5,463.5 
		295,460 310,460 335,460 365,460 370,435 355,415 336.5,411.5 320,420 311.5,436.5 295,440 280,440 260,435 245,435 230,440 
		220,460 240,455 245,475 220,475 220,495 245,495 240,520 265,515 288.5,523.5 298.9,526.6 300,500 	"/>
	<polygon class="st1" points="363.5,496.5 363.5,516.5 358.1,544.6 381.6,541.1 387.1,512.9 383.5,501.5 398.5,501.5 410.6,474.4 
		383.5,481.5 392.1,452.9 365,460 360,480 	"/>
	<polygon class="st1" points="1120,480 1095,475 1100,500 1130,500 	"/>
	<rect y="500" class="st1" width="10" height="20"/>
	<polygon class="st1" points="200,500 180,500 185,525 195,525 	"/>
	<polygon class="st1" points="415,515 422.1,487.9 398.5,501.5 398.5,516.5 	"/>
	<polygon class="st1" points="865,515 885,515 881.5,501.5 857.9,487.9 	"/>
	<polygon class="st1" points="960,517.1 932.9,517.1 935,530 931.5,538.5 940,555 961.5,563.5 960,580 980,570 985,555 988.5,541.5 
		980,530 958.5,526.5 	"/>
	<polygon class="st1" points="1080,500 1085,525 1095,525 1100,500 	"/>
	<rect x="1270" y="500" class="st1" width="10" height="20"/>
	<polygon class="st1" points="445,545 455,545 455,555 485,560 483.5,536.5 490.6,509.4 463.5,516.5 440,515 415,515 425,540 	"/>
	<polygon class="st1" points="640,550 650,545 650,560 685,560 680,540 712.1,547.1 708.5,523.5 708.5,496.5 710.6,469.4 680,472.9 
		680,500 660,495 660,525 640,530 620,525 620,495 600,500 600,472.9 569.4,469.4 571.5,496.5 571.5,523.5 567.9,547.1 600,540 
		595,560 630,560 630,545 	"/>
	<polygon class="st1" points="816.5,516.5 789.4,509.4 796.5,536.5 795,560 825,555 825,545 835,545 855,540 865,515 840,515 	"/>
	<polygon class="st1" points="1240,540 1207.9,532.9 1211.5,556.5 1211.5,583.5 1209.4,610.6 1240,607.1 1240,580 1260,585 
		1260,555 1280,560 1280,540 1270,535 1270,520 1235,520 	"/>
	<polygon class="st1" points="195,535 185,535 185,525 155,520 156.5,543.5 149.4,570.6 176.5,563.5 200,565 223.5,561.5 215,540 	
		"/>
	<polygon class="st1" points="335.4,566.9 340,545 336.5,516.5 336.5,496.5 316.5,496.5 311.8,514.6 298.9,526.6 290.4,543.1 
		295,555 300,570 320,580 315,565 	"/>
	<polygon class="st1" points="1103.5,563.5 1130.6,570.6 1123.5,543.5 1125,520 1095,525 1095,535 1085,535 1065,540 1055,565 
		1080,565 	"/>
	<polygon class="st1" points="0,540 0,560 20,555 20,585 40,580 40,607.1 70.6,610.6 68.5,583.5 68.5,556.5 72.1,532.9 40,540 
		45,520 10,520 10,535 	"/>
	<polygon class="st1" points="243.5,556.5 223.5,561.5 213.9,583.4 240.4,566.8 	"/>
	<polygon class="st1" points="440,580 460,580 455,555 445,555 	"/>
	<polygon class="st1" points="650,580 650,560 640,560 630,560 630,580 640,580 	"/>
	<polygon class="st1" points="840,580 835,555 825,555 820,580 	"/>
	<polygon class="st1" points="940,555 928.5,556.5 905,565 880,560 885,585 860,585 860,605 885,605 880,625 860,620 870,640 
		885,645 900,645 920,640 935,640 951.5,643.5 960,660 976.5,668.5 995,665 1010,645 1005,620 975,620 950,620 935,620 923.5,616.5 
		903.5,621.5 908.5,601.5 905,590 920,590 920,605 931.5,603.5 950,600 960,580 940,580 	"/>
	<polygon class="st1" points="1055,565 1035,565 1038.5,578.5 1062.1,592.1 	"/>
	<polygon class="st1" points="285,570 285,555 290,545 270,545 265,560 266.9,570.4 240.4,566.8 233.4,603.9 271.9,600.4 
		258.1,629.6 280,620 290,595 	"/>
	<polygon class="st1" points="480,600 490,580 460,580 455,605 	"/>
	<polygon class="st1" points="810,600 825,605 820,580 795,580 	"/>
	<polygon class="st1" points="12.9,632.1 40,637.1 40,607.1 12.9,612.1 	"/>
	<polygon class="st1" points="527.1,582.9 508.5,591.5 500,620 523.5,616.5 	"/>
	<polygon class="st1" points="756.2,590.8 760,620 786.9,624.6 783.1,595.4 	"/>
	<polygon class="st1" points="1023.5,598.5 1050.6,605.6 1038.5,578.5 1020,575 1015,565 1010,545 990,545 995,555 1000,570 
		1000,595 1005,620 1032.1,627.1 	"/>
	<polygon class="st1" points="1267.1,632.1 1267.1,612.1 1240,607.1 1240,637.1 	"/>
	<polygon class="st1" points="200,615 175,615 175,640 205,645 	"/>
	<polygon class="st1" points="345,640 360,640 380,645 395,645 410,640 420,620 400,625 395,605 420,605 420,585 395,585 400,560 
		378.1,569.6 353.5,571.5 335.4,566.9 338.9,585.4 320,580 330,600 348.5,603.5 360,605 358.9,595.4 375,590 371.5,601.5 
		376.5,621.5 356.5,616.5 345,620 330,620 305,620 280,620 270,645 285,665 303.5,668.5 320,660 328.5,643.5 	"/>
	<polygon class="st1" points="500,620 475,620 483.5,643.5 503.5,653.5 	"/>
	<polygon class="st1" points="547.1,607.9 536.5,638.5 555,630 560,602.9 	"/>
	<polygon class="st1" points="643.5,648.5 660,645 680,640 685,620 685,600 685,580 650,580 650,595 640,590 630,595 630,580 
		595,580 595,600 595,610 600,622.9 627.1,635 	"/>
	<polygon class="st1" points="708.8,610.4 715.4,633.1 737.3,642.7 728.8,615.4 	"/>
	<polygon class="st1" points="786.9,624.6 778.4,653.2 796.5,643.5 810,620 	"/>
	<polygon class="st1" points="1101.1,604.6 1071.5,611.5 1064.4,636.5 1097.5,638.1 	"/>
	<polygon class="st1" points="483.5,643.5 460,635 465,660 493.5,663.5 	"/>
	<polygon class="st1" points="680,640 675,660 675,685 650,680 665,705 675,710 680,720 700,720 700,700 725,710 725,685 750,680 
		751.9,664.6 725,660 715.4,633.1 700,635 	"/>
	<polygon class="st1" points="796.5,643.5 786.5,663.5 815,660 820,635 	"/>
	<polygon class="st1" points="125.4,666.8 123.5,641.5 96.5,641.5 91.5,671.5 61.5,676.5 65,700 85,700 100,720 120,720 
		118.8,690.8 	"/>
	<polygon class="st1" points="261.5,676.5 263.5,696.5 249,688.3 240,720 260,720 280,720 280,695 300,690 300,670 290,675 285,665 
		252.9,652.9 	"/>
	<polygon class="st1" points="465,660 435,660 435,635 410,640 410,660 395,660 380,660 360,655 370,675 385,680 395,680 410,680 
		410,695 435,700 460,700 465,680 	"/>
	<polygon class="st1" points="885,680 895,680 910,675 920,655 900,660 885,660 870,660 870,640 845,635 845,660 815,660 815,680 
		820,700 845,700 870,695 870,680 	"/>
	<polygon class="st1" points="938.5,671.5 910,675 910,695 935,700 960,695 968.5,671.5 960,660 938.5,651.5 	"/>
	<polygon class="st1" points="1160,720 1180,720 1197.1,692.9 1213.5,696.5 1218.5,676.5 1193.5,671.5 1183.5,641.5 1161.6,641.8 
		1161.2,665.8 1164.7,696.5 	"/>
	<polygon class="st1" points="341.5,671.5 341.5,651.5 320,660 311.5,671.5 320,695 345,700 370,695 370,675 	"/>
	<polygon class="st1" points="601.1,695.4 601.1,658.4 600,622.9 571.5,626.5 555,630 545,660 526.5,663.5 530,680 550,685 555,710 
		580,705 580,720 600,720 605,715 615,705 629.6,681.9 	"/>
	<polygon class="st1" points="980,670 976.5,686.5 992.9,682.9 1000,720 1020,720 1040,720 1032.9,687.9 1012.9,682.9 1009.6,666.8 
		1021.6,651.8 995,665 990,670 	"/>
	<polygon class="st1" points="0,700 0,720 20,720 40,720 50.6,689.4 23.5,691.5 	"/>
	<polygon class="st1" points="198.4,701.8 169.4,694.4 180,720 200,720 220,720 227.4,692.2 	"/>
	<polygon class="st1" points="385,690 370,695 360,720 380,720 400,720 420,720 410,695 395,690 	"/>
	<polygon class="st1" points="480,695 460,700 460,720 480,720 500,720 520,720 525,690 500,690 	"/>
	<polygon class="st1" points="615,705 620,720 640,720 660,720 665,705 640,690 	"/>
	<polygon class="st1" points="780,690 755,690 760,720 780,720 800,720 820,720 820,700 800,695 	"/>
	<polygon class="st1" points="885,690 870,695 860,720 880,720 900,720 920,720 910,695 895,690 	"/>
	<polygon class="st1" points="1083.5,696.5 1056.5,696.5 1060,720 1080,720 1100,720 1111.7,694.8 	"/>
	<polygon class="st1" points="1229.4,689.4 1240,720 1260,720 1280,720 1280,700 1256.5,691.5 	"/>
</g>
<g>
	<polygon class="st0" points="595,120 595,140 630,140 630,160 595,160 600,180 569.6,171.8 578.1,188.3 581.5,216.5 579.6,253.2 
		613.5,248.5 613.5,216.5 625,225 620,195 640,190 660,195 660,225 680,220 680,247.1 710.6,250.6 708.5,223.5 708.5,196.5 
		713.2,178.4 680,180 681.9,164.6 650,160 650,140 680.4,148.2 677.1,120 675,92.9 676.5,76.5 660,75 640,70 620,75 600,80 595,100 
			"/>
	<polygon class="st0" points="640,50 630,40 630,55 	"/>
	<polygon class="st0" points="483.5,76.5 493.5,56.5 465,60 460,85 	"/>
	<polygon class="st0" points="480,120 455,115 460,140 490,140 	"/>
	<polygon class="st0" points="475,100 500,100 503.5,66.5 483.5,76.5 	"/>
	<rect x="440" y="105" class="st0" width="15" height="10"/>
	<polygon class="st0" points="741.9,104.6 748.2,78.4 724.6,81.9 721.9,109.6 	"/>
	<polygon class="st0" points="650,55 650,40 640,50 	"/>
	<polygon class="st0" points="721.9,109.6 701.9,102.5 712.5,121.1 714,144.6 732.1,145 720.8,124.2 	"/>
	<polygon class="st0" points="860,390 860,360 860,330 836.5,331.5 809.4,329.4 812.9,360 809.4,390.6 836.5,388.5 	"/>
	<polygon class="st0" points="840,105 825,105 825,115 836.5,111.5 	"/>
	<polygon class="st0" points="800,120 790,140 816.5,138.5 825,115 	"/>
	<polygon class="st0" points="835.4,176.9 831.8,165.4 832.9,135 816.5,138.5 821.5,163.5 795,160 796.5,183.5 789.4,210.6 
		816.5,203.5 840,205 865,210 850.4,186.9 	"/>
	<polygon class="st0" points="805,100 796.5,76.5 776.5,66.5 780,100 	"/>
	<polygon class="st0" points="820,85 815,60 786.5,56.5 796.5,76.5 	"/>
	<polygon class="st0" points="420,330 420,360 420,390 443.5,388.5 467.1,387.1 467.1,360 470.6,329.4 443.5,331.5 	"/>
	<path class="st0" d="M571.5,606.5l-10-10L560,580l1.5-16.5l6.4-16.4h-20l-6.4-23.6v-27l6.4-23.6l21.5-3.5l3.5-21.5l27.1-5v30
		l27.1-5l12.9-5l12.9,5l27.1,5v-30l27.1,5l3.5,21.5l21.5,3.5l6.4,23.6v27l-6.4,23.6h-20l6.4,16.4L715,580l-6.9,15.4l-5,15h5.7
		l4.7-18.1l8-20.8h15v-20l16.6-1.1l3.1,20.4h15l-8.1-15.4l-1.6-18.9l6.4-23.6l21.5-3.5l3.5-21.5l23.6-6.4h20l21.4,6.4l-8.5-18.5
		l20,5v-25l18.5,3.5l-5-12.9l10-12.9l-23.5,3.5l3.5-18.5l-16.4,6.4h-20l-23.6-6.4l-3.5-21.5l-11.5-3.5l-5-27.1l5-27.1l11.5-3.5
		l3.5-21.5l23.6-6.4h20l16.4,6.4l-3.5-18.5l23.5,3.5l-10-12.9l5-12.9l-18.5,3.5v-25l-20,5l8.5-18.5l-21.4,6.4h-20l-23.6-6.4
		l-3.5-21.5l-21.5-3.5l-6.4-23.6L760,160l1.5-16.5l10-15L780,100l-18.1,4.6v32.1l-21.1-5.5l6.3,20.9l-15-7.1l1.1,20.4l-16.7,1.1
		l-3.3,11.9h20l5.3,18.1v27l-6.4,23.6l-21.5,3.5l-3.5,21.5l-27.1,5v-30l-27.1,5l-12.9,5l-7.9-5l-18.6-3.6l-10,30l-25.4,1.1
		l-23.5-6.4l-8.6-21.5l-19.5-8.2l-1.1-25.4h17.9l1.6-28.2l4.7-18.1h20l-8.1-15.3L560,140l1.5-16.5l10-15l-11.5,8.6V90l-23.5-8.5
		l10.6,30.6v20l-20,5l-3.6-33.6L500,100l8.5,28.5l10,15L520,160l-1.5,23.5l-6.4,23.6l-21.5,3.5l-3.5,21.5l-23.6,6.4h-20l-21.4-6.4
		l8.5,18.5l-20-5v25l-18.5-3.5l5,12.9l-10,12.9l23.5-3.5l-3.5,18.5l16.4-6.4h20l23.6,6.4l3.5,21.5l11.5,3.5l5,22.1l-7.1,20l9.6-8.2
		L490,355l-5-15l-3.5-23.5l10-25l25-10l-5,30L510,340v20l3.1,15.4l10.4,28.1l3.9,34.3l-28.6-3.6l3.1,20.4l-20.4-1.1l-15-25
		l-18.6-6.4l7.1-15l-15,10l-16.5,1.4l-16.4-6.4l3.5,18.5l-23.5-3.5l10,12.9l-5,12.9l18.5-3.5v25l20-5l-8.5,18.5l21.4-6.4h20
		l23.6,6.4l3.5,21.5l21.5,3.5l6.4,23.6L520,560l-1.5,16.5l-10,15L500,620l23.5-3.5l3.6-33.6l20,5v20l-10.6,30.6L555,630l5-27.1
		L571.5,606.5z M768.5,311.5l-5-30l25,10l10,25L795,340l-5,20l5,20l3.5,23.5l-10,25l-25,10l5-30L770,380v-20v-20L768.5,311.5z
		 M568.5,428.5l-21.4,8.6l5-30l26.4-3.6L568.5,428.5z M550,380v-20v-20h25l-5,20l5,20H550z M711.5,428.5l-10-25l30,5l5,30
		L711.5,428.5z M705,380l5-20l-5-20h25v20v20H705z M711.5,291.5l25-10l-5,30l-30,5L711.5,291.5z M592.9,307.9l23.6-6.4L640,300
		l23.5,1.5l23.6,6.4l3.5,21.5l11.5,3.5l5,27.1l-5,27.1l-11.5,3.5l-3.5,21.5l-23.6,6.4L640,420l-23.5-1.5l-23.6-6.4l-3.5-21.5
		l-11.5-3.5l-5-27.1l5-27.1l11.5-3.5L592.9,307.9z M568.5,291.5l10,25l-30-5l-5-30L568.5,291.5z"/>
	<polygon class="st0" points="643.5,668.5 636.7,661.9 629.6,681.9 640,670 650,680 650,665 	"/>
	<polygon class="st0" points="589.4,390.6 616.5,388.5 640,390 663.5,388.5 690.6,390.6 687.1,360 690.6,329.4 663.5,331.5 640,330 
		616.5,331.5 589.4,329.4 592.9,360 	"/>
	<polygon class="st0" points="685,600 685,580 650,580 650,560 685,560 680,540 712.1,547.1 708.5,523.5 708.5,496.5 710.6,469.4 
		680,472.9 680,500 660,495 660,525 640,530 620,525 620,495 600,500 600,472.9 569.4,469.4 571.5,496.5 571.5,523.5 567.9,547.1 
		600,540 595,560 630,560 630,580 595,580 595,600 595,610 600,622.9 627.1,635 643.5,648.5 660,645 680,640 685,620 	"/>
	<polygon class="st0" points="475,620 483.5,643.5 503.5,653.5 500,620 	"/>
	<polygon class="st0" points="796.5,643.5 786.5,663.5 815,660 820,635 	"/>
	<polygon class="st0" points="810,620 786.9,624.6 778.4,653.2 796.5,643.5 	"/>
	<polygon class="st0" points="728.8,615.4 708.8,610.4 715.4,633.1 737.3,642.7 	"/>
	<rect x="440" y="605" class="st0" width="15" height="10"/>
	<polygon class="st0" points="460,635 465,660 493.5,663.5 483.5,643.5 	"/>
	<polygon class="st0" points="455,407.1 466.5,396.5 480,375 467.1,387.1 	"/>
	<polygon class="st0" points="480,600 490,580 460,580 455,605 	"/>
	<polygon class="st0" points="816.5,516.5 789.4,509.4 796.5,536.5 795,560 825,555 820,580 840,580 835,555 835,545 855,540 
		865,515 840,515 	"/>
	<polygon class="st0" points="363.5,496.5 363.5,516.5 387.1,512.9 398.5,516.5 415,515 422.1,487.9 398.5,501.5 410.6,474.4 
		383.5,481.5 392.1,452.9 365,460 360,480 	"/>
	<polygon class="st0" points="440,515 415,515 425,540 445,545 445,555 440,580 460,580 455,555 485,560 483.5,536.5 490.6,509.4 
		463.5,516.5 	"/>
	<polygon class="st0" points="463.5,203.5 490.6,210.6 483.5,183.5 485,160 455,165 460,140 440,140 445,165 445,175 425,180 
		415,205 440,205 	"/>
	<polygon class="st0" points="78.5,101.5 60,97.9 67.1,112.9 80.4,121.1 	"/>
	<polygon class="st0" points="160,245 185,250 184.6,233.1 150.4,231.9 	"/>
	<polygon class="st0" points="176.5,131.5 192.9,122.9 191.5,116.5 195,105 173.9,99.6 188.2,114.6 	"/>
	<polygon class="st0" points="200,255 200,245 185,250 185,255 	"/>
	<polygon class="st0" points="204.6,223.1 207.7,202.7 193.2,199.6 184.6,233.1 	"/>
	<polygon class="st0" points="131.5,116.5 140,97.9 118.5,101.5 123.5,121.5 112.9,140 133.4,126.8 	"/>
	<polygon class="st0" points="165,260 143.5,258.5 140,292.1 156.5,283.5 	"/>
	<polygon class="st0" points="156.5,283.5 146.5,303.5 175,300 180,275 	"/>
	<polygon class="st0" points="140,292.1 132.1,292.1 128.5,303.5 125.7,305 135,305 150,315 146.5,303.5 131.5,303.5 	"/>
	<polygon class="st0" points="161.9,668.3 156.5,694.4 169.4,694.4 174.8,668.3 	"/>
	<polygon class="st0" points="140,330 115,330 110,360 115,390 140,390 160,385 180,380 180,360 180,340 160,335 	"/>
	<polygon class="st0" points="207.7,202.7 196.1,191.8 196.1,191.8 	"/>
	<polygon class="st0" points="172,158.4 172,158.4 171.8,158.4 162.7,149.1 164.4,170.2 154.3,205.3 193.2,199.6 188.5,176.5 
		196,191.7 218.1,196.7 224.6,160.2 189.4,158.5 	"/>
	<polygon class="st0" points="192.9,72.9 192.9,72.9 192.9,72.9 195,105 	"/>
	<polygon class="st0" points="234.9,93.8 253.1,95.4 242.9,80 237.9,80 	"/>
	<polygon class="st0" points="193,57.9 213,60 216.5,53.5 200,50 192.9,57.9 193,57.9 	"/>
	<polygon class="st0" points="90,360 85,370 95,375 	"/>
	<polygon class="st0" points="156.5,436.5 136.5,426.5 140,460 165,460 	"/>
	<polygon class="st0" points="200,565 223.5,561.5 215,540 195,535 195,525 200,500 180,500 185,525 155,520 156.5,543.5 
		149.4,570.6 176.5,563.5 	"/>
	<polygon class="st0" points="180,445 175,420 146.5,416.5 156.5,436.5 	"/>
	<rect x="185" y="465" class="st0" width="15" height="10"/>
	<rect x="825" y="605" class="st0" width="15" height="10"/>
	<polygon class="st0" points="760,620 786.9,624.6 783.1,595.4 756.2,590.8 	"/>
	<polygon class="st0" points="251.8,61.6 251.8,61.6 248.3,62.1 	"/>
	<polygon class="st0" points="810,600 825,605 820,580 795,580 	"/>
	<polygon class="st0" points="78.5,101.5 97.1,92.9 118.5,101.5 119.6,86.9 98.5,86.5 101.1,75.4 71.8,61.6 83.5,81.5 	"/>
	<polygon class="st0" points="160,480 150,500 180,500 185,475 	"/>
	<polygon class="st0" points="1125,672.9 1132.6,667.2 1146.6,651.8 1130,660 	"/>
	<path class="st0" d="M148.2,78.4L140,97.9l18.9-10.4l15,12.1l-7.1-25l26.1-1.7v-15l-20,7.1V52.1l-16.4-1.5l-7.5,1.1l2.7,17.3
		l-18.9,3.4l-13.2,14.5L148.2,78.4z M191.3,73l-24.4,1.6l0-0.1L191.3,73z"/>
	<polygon class="st0" points="103.1,245.4 74.6,241.8 72.9,280 108.5,283.5 	"/>
	<polygon class="st0" points="736.5,571.5 733.5,592.3 756.2,590.8 756.2,570.8 	"/>
	<polygon class="st0" points="95,345 85,350 90,360 	"/>
	<polygon class="st0" points="80,220 75,235 56.5,251.5 74.6,241.8 83.1,225.4 98.1,220.4 116.5,221.5 128.5,253.5 143.5,258.5 
		131.5,231.5 121.8,218.4 121.1,205.7 128.1,181.1 105.8,183.8 103.3,161.9 112.9,140 103.4,153.2 100.4,126.1 80.4,121.1 
		95.4,141.1 98.5,163.5 92.1,187.1 72.1,187.1 78.5,203.5 	"/>
	<polygon class="st0" points="1125,80 1125,100 1147.1,105 1144.6,86.9 	"/>
	<polygon class="st0" points="1125,240 1140,220 1111.9,220.4 1103.5,248.5 	"/>
	<polygon class="st0" points="1153.5,293.5 1155.4,283.1 1143.5,288.5 1143.5,294.3 	"/>
	<polygon class="st0" points="1125,520 1095,525 1100,500 1080,500 1085,525 1085,535 1065,540 1055,565 1080,565 1103.5,563.5 
		1130.6,570.6 1123.5,543.5 	"/>
	<rect x="1080" y="465" class="st0" width="15" height="10"/>
	<polygon class="st0" points="1124.6,441.9 1130.1,430.1 1101.9,424.6 1100,445 	"/>
	<polygon class="st0" points="1120,480 1095,475 1100,500 1130,500 	"/>
	<polygon class="st0" points="983.5,76.5 985,52.9 956.5,56.5 947.9,80 948.3,109 980,107.1 	"/>
	<polygon class="st0" points="1044.6,81.1 1049.6,61.1 1053.5,51.5 1041.6,58.2 1041.6,68.2 1032.1,67.1 1033.2,76.6 1025.7,87.6 
		1044.6,93.1 1035,75 	"/>
	<polygon class="st0" points="1190,365 1185,380 1195,375 1195,365 	"/>
	<polygon class="st0" points="1141.1,65.4 1126.8,45.4 1120,35 1120,55 	"/>
	<polygon class="st0" points="1027.1,52.1 1023.5,38.5 1003.5,28.5 1007.1,47.1 1008.5,56.5 1032.1,67.1 	"/>
	<polygon class="st0" points="1100,55 1106.5,42.7 1077.3,51.5 1075,60 	"/>
	<polygon class="st0" points="1121.5,307.2 1141.6,302.6 1143.5,294.3 1130.4,298.9 	"/>
	<polygon class="st0" points="1146.5,391.5 1145,370 1175,365 1173.5,336.5 1146.6,336.8 1111,333.3 1116.5,361.5 1086.5,356.5 
		1086.5,383.5 1121.1,385.4 	"/>
	<polygon class="st0" points="1115,460 1140,460 1144.6,431.9 1124.6,441.9 	"/>
	<polygon class="st0" points="1087.1,172.9 1089,193.3 1081.9,225.4 1111.9,220.4 1105.4,191.8 1128.5,203.5 1117.1,180 
		1125.6,149.4 1098.5,156.5 1080,150 1055,150 1060,167.9 	"/>
	<polygon class="st0" points="1098.9,124.6 1122.5,136 1115.4,123.1 1088.3,120.2 1097.9,112.1 1105,80 1073.1,84.6 1074.6,118.2 
		1058.1,109.6 1044.6,93.1 1055.1,119.2 1072.1,117.9 1062.1,127.9 1083.5,121.5 	"/>
	<polygon class="st0" points="1247.1,127.9 1240,107.9 1211,103.3 1217,124.9 1215.4,158.1 1206.8,185.4 1245,180 1252.1,152.9 
		1272.1,160 1263.5,131.5 	"/>
	<polygon class="st0" points="1094.1,260 1102.1,260 1103.5,248.5 1087.1,245 	"/>
	<polygon class="st0" points="1120,35 1121.9,24.6 1108.4,27.3 1106.5,42.7 	"/>
	<polygon class="st0" points="1123.5,283.5 1143.5,288.5 1140,260 1115,260 	"/>
	<polygon class="st0" points="1123.5,283.5 1103.5,276.5 1105,300 1130.4,298.9 	"/>
	<g>
		<polygon class="st0" points="480,120 455,115 460,140 490,140 		"/>
		<polygon class="st0" points="595,120 595,140 630,140 630,160 595,160 600,180 569.6,171.8 578.1,188.3 581.5,216.5 579.6,253.2 
			613.5,248.5 613.5,216.5 625,225 620,195 640,190 660,195 660,225 680,220 680,247.1 710.6,250.6 708.5,223.5 708.5,196.5 
			713.2,178.4 680,180 681.9,164.6 650,160 650,140 680.4,148.2 677.1,120 675,92.9 676.5,76.5 660,75 640,70 620,75 600,80 
			595,100 		"/>
		<rect x="440" y="105" class="st0" width="15" height="10"/>
		<polygon class="st0" points="463.5,203.5 490.6,210.6 483.5,183.5 485,160 455,165 460,140 440,140 445,165 445,175 425,180 
			415,205 440,205 		"/>
		<polygon class="st0" points="640,50 630,40 630,55 		"/>
		<polygon class="st0" points="455,407.1 466.5,396.5 480,375 467.1,387.1 		"/>
		<polygon class="st0" points="483.5,76.5 493.5,56.5 465,60 460,85 		"/>
		<polygon class="st0" points="475,100 500,100 503.5,66.5 483.5,76.5 		"/>
		<polygon class="st0" points="741.9,104.6 748.2,78.4 724.6,81.9 721.9,109.6 		"/>
		<polygon class="st0" points="835.4,176.9 831.8,165.4 832.9,135 816.5,138.5 821.5,163.5 795,160 796.5,183.5 789.4,210.6 
			816.5,203.5 840,205 865,210 850.4,186.9 		"/>
		<polygon class="st0" points="820,85 815,60 786.5,56.5 796.5,76.5 		"/>
		<polygon class="st0" points="800,120 790,140 816.5,138.5 825,115 		"/>
		<polygon class="st0" points="840,105 825,105 825,115 836.5,111.5 		"/>
		<polygon class="st0" points="420,330 420,360 420,390 443.5,388.5 467.1,387.1 467.1,360 470.6,329.4 443.5,331.5 		"/>
		<polygon class="st0" points="721.9,109.6 701.9,102.5 712.5,121.1 714,144.6 732.1,145 720.8,124.2 		"/>
		<polygon class="st0" points="805,100 796.5,76.5 776.5,66.5 780,100 		"/>
		<polygon class="st0" points="650,55 650,40 640,50 		"/>
		<polygon class="st0" points="1123.5,283.5 1143.5,288.5 1140,260 1115,260 		"/>
		<polygon class="st0" points="810,620 786.9,624.6 778.4,653.2 796.5,643.5 		"/>
		<polygon class="st0" points="796.5,643.5 786.5,663.5 815,660 820,635 		"/>
		<polygon class="st0" points="685,600 685,580 650,580 650,560 685,560 680,540 712.1,547.1 708.5,523.5 708.5,496.5 710.6,469.4 
			680,472.9 680,500 660,495 660,525 640,530 620,525 620,495 600,500 600,472.9 569.4,469.4 571.5,496.5 571.5,523.5 567.9,547.1 
			600,540 595,560 630,560 630,580 595,580 595,600 595,610 600,622.9 627.1,635 643.5,648.5 660,645 680,640 685,620 		"/>
		<polygon class="st0" points="1121.5,307.2 1141.6,302.6 1143.5,294.3 1130.4,298.9 		"/>
		<polygon class="st0" points="1125,672.9 1132.6,667.2 1146.6,651.8 1130,660 		"/>
		<polygon class="st0" points="643.5,668.5 636.7,661.9 629.6,681.9 640,670 650,680 650,665 		"/>
		<polygon class="st0" points="480,600 490,580 460,580 455,605 		"/>
		<polygon class="st0" points="1153.5,293.5 1155.4,283.1 1143.5,288.5 1143.5,294.3 		"/>
		<polygon class="st0" points="363.5,496.5 363.5,516.5 387.1,512.9 398.5,516.5 415,515 422.1,487.9 398.5,501.5 410.6,474.4 
			383.5,481.5 392.1,452.9 365,460 360,480 		"/>
		<polygon class="st0" points="440,515 415,515 425,540 445,545 445,555 440,580 460,580 455,555 485,560 483.5,536.5 490.6,509.4 
			463.5,516.5 		"/>
		<path class="st0" d="M571.5,606.5l-10-10L560,580l1.5-16.5l6.4-16.4h-20l-6.4-23.6v-27l6.4-23.6l21.5-3.5l3.5-21.5l27.1-5v30
			l27.1-5l12.9-5l12.9,5l27.1,5v-30l27.1,5l3.5,21.5l21.5,3.5l6.4,23.6v27l-6.4,23.6h-20l6.4,16.4L715,580l-6.9,15.4l-5,15h5.7
			l4.7-18.1l8-20.8h15v-20l16.6-1.1l3.1,20.4h15l-8.1-15.4l-1.6-18.9l6.4-23.6l21.5-3.5l3.5-21.5l23.6-6.4h20l21.4,6.4l-8.5-18.5
			l20,5v-25l18.5,3.5l-5-12.9l10-12.9l-23.5,3.5l3.5-18.5l-16.4,6.4h-20l-23.6-6.4l-3.5-21.5l-11.5-3.5l-5-27.1l5-27.1l11.5-3.5
			l3.5-21.5l23.6-6.4h20l16.4,6.4l-3.5-18.5l23.5,3.5l-10-12.9l5-12.9l-18.5,3.5v-25l-20,5l8.5-18.5l-21.4,6.4h-20l-23.6-6.4
			l-3.5-21.5l-21.5-3.5l-6.4-23.6L760,160l1.5-16.5l10-15L780,100l-18.1,4.6v32.1l-21.1-5.5l6.3,20.9l-15-7.1l1.1,20.4l-16.7,1.1
			l-3.3,11.9h20l5.3,18.1v27l-6.4,23.6l-21.5,3.5l-3.5,21.5l-27.1,5v-30l-27.1,5l-12.9,5l-7.9-5l-18.6-3.6l-10,30l-25.4,1.1
			l-23.5-6.4l-8.6-21.5l-19.5-8.2l-1.1-25.4h17.9l1.6-28.2l4.7-18.1h20l-8.1-15.3L560,140l1.5-16.5l10-15l-11.5,8.6V90l-23.5-8.5
			l10.6,30.6v20l-20,5l-3.6-33.6L500,100l8.5,28.5l10,15L520,160l-1.5,23.5l-6.4,23.6l-21.5,3.5l-3.5,21.5l-23.6,6.4h-20l-21.4-6.4
			l8.5,18.5l-20-5v25l-18.5-3.5l5,12.9l-10,12.9l23.5-3.5l-3.5,18.5l16.4-6.4h20l23.6,6.4l3.5,21.5l11.5,3.5l5,22.1l-7.1,20l9.6-8.2
			L490,355l-5-15l-3.5-23.5l10-25l25-10l-5,30L510,340v20l3.1,15.4l10.4,28.1l3.9,34.3l-28.6-3.6l3.1,20.4l-20.4-1.1l-15-25
			l-18.6-6.4l7.1-15l-15,10l-16.5,1.4l-16.4-6.4l3.5,18.5l-23.5-3.5l10,12.9l-5,12.9l18.5-3.5v25l20-5l-8.5,18.5l21.4-6.4h20
			l23.6,6.4l3.5,21.5l21.5,3.5l6.4,23.6L520,560l-1.5,16.5l-10,15L500,620l23.5-3.5l3.6-33.6l20,5v20l-10.6,30.6L555,630l5-27.1
			L571.5,606.5z M768.5,311.5l-5-30l25,10l10,25L795,340l-5,20l5,20l3.5,23.5l-10,25l-25,10l5-30L770,380v-20v-20L768.5,311.5z
			 M568.5,428.5l-21.4,8.6l5-30l26.4-3.6L568.5,428.5z M550,380v-20v-20h25l-5,20l5,20H550z M711.5,428.5l-10-25l30,5l5,30
			L711.5,428.5z M705,380l5-20l-5-20h25v20v20H705z M711.5,291.5l25-10l-5,30l-30,5L711.5,291.5z M592.9,307.9l23.6-6.4L640,300
			l23.5,1.5l23.6,6.4l3.5,21.5l11.5,3.5l5,27.1l-5,27.1l-11.5,3.5l-3.5,21.5l-23.6,6.4L640,420l-23.5-1.5l-23.6-6.4l-3.5-21.5
			l-11.5-3.5l-5-27.1l5-27.1l11.5-3.5L592.9,307.9z M568.5,291.5l10,25l-30-5l-5-30L568.5,291.5z"/>
		<rect x="440" y="605" class="st0" width="15" height="10"/>
		<polygon class="st0" points="589.4,390.6 616.5,388.5 640,390 663.5,388.5 690.6,390.6 687.1,360 690.6,329.4 663.5,331.5 
			640,330 616.5,331.5 589.4,329.4 592.9,360 		"/>
		<polygon class="st0" points="460,635 465,660 493.5,663.5 483.5,643.5 		"/>
		<polygon class="st0" points="475,620 483.5,643.5 503.5,653.5 500,620 		"/>
		<polygon class="st0" points="728.8,615.4 708.8,610.4 715.4,633.1 737.3,642.7 		"/>
		<polygon class="st0" points="156.5,283.5 165,260 143.5,258.5 140,292.1 		"/>
		<polygon class="st0" points="204.6,223.1 207.7,202.7 193.2,199.6 184.6,233.1 		"/>
		<polygon class="st0" points="160,245 185,250 184.6,233.1 150.4,231.9 		"/>
		<polygon class="st0" points="200,255 200,245 185,250 185,255 		"/>
		<polygon class="st0" points="140,292.1 132.1,292.1 128.5,303.5 125.7,305 135,305 150,315 146.5,303.5 131.5,303.5 		"/>
		<polygon class="st0" points="251.8,61.6 251.8,61.6 251.8,61.6 248.3,62.1 		"/>
		<polygon class="st0" points="172,158.4 172,158.4 171.8,158.4 162.7,149.1 164.4,170.2 154.3,205.3 193.2,199.6 188.5,176.5 
			196,191.7 218.1,196.7 224.6,160.2 189.4,158.5 		"/>
		<polygon class="st0" points="156.5,283.5 146.5,303.5 175,300 180,275 		"/>
		<polygon class="st0" points="131.5,116.5 140,97.9 118.5,101.5 123.5,121.5 112.9,140 133.4,126.8 		"/>
		<polygon class="st0" points="161.9,668.3 156.5,694.4 169.4,694.4 174.8,668.3 		"/>
		<polygon class="st0" points="140,330 115,330 110,360 115,390 140,390 160,385 180,380 180,360 180,340 160,335 		"/>
		<polygon class="st0" points="234.9,93.8 253.1,95.4 242.9,80 237.9,80 		"/>
		<polygon class="st0" points="176.5,131.5 192.9,122.9 191.5,116.5 195,105 173.9,99.6 188.2,114.6 		"/>
		<polygon class="st0" points="192.9,72.9 192.9,72.9 192.9,72.9 195,105 		"/>
		<polygon class="st0" points="193,57.9 213,60 216.5,53.5 200,50 192.9,57.9 193,57.9 		"/>
		<rect x="185" y="465" class="st0" width="15" height="10"/>
		<polygon class="st0" points="860,390 860,360 860,330 836.5,331.5 809.4,329.4 812.9,360 809.4,390.6 836.5,388.5 		"/>
		<polygon class="st0" points="200,565 223.5,561.5 215,540 195,535 195,525 200,500 180,500 185,525 155,520 156.5,543.5 
			149.4,570.6 176.5,563.5 		"/>
		<polygon class="st0" points="810,600 825,605 820,580 795,580 		"/>
		<polygon class="st0" points="180,445 175,420 146.5,416.5 156.5,436.5 		"/>
		<polygon class="st0" points="156.5,436.5 136.5,426.5 140,460 165,460 		"/>
		<polygon class="st0" points="756.2,590.8 756.2,570.8 736.5,571.5 733.5,592.3 		"/>
		<polygon class="st0" points="816.5,516.5 789.4,509.4 796.5,536.5 795,560 825,555 820,580 840,580 835,555 835,545 855,540 
			865,515 840,515 		"/>
		<polygon class="st0" points="760,620 786.9,624.6 783.1,595.4 756.2,590.8 		"/>
		<polygon class="st0" points="103.1,245.4 74.6,241.8 72.9,280 108.5,283.5 		"/>
		<polygon class="st0" points="78.5,101.5 60,97.9 67.1,112.9 80.4,121.1 		"/>
		<polygon class="st0" points="78.5,101.5 97.1,92.9 118.5,101.5 119.6,86.9 98.5,86.5 101.1,75.4 71.8,61.6 83.5,81.5 		"/>
		<polygon class="st0" points="80,220 75,235 56.5,251.5 74.6,241.8 83.1,225.4 98.1,220.4 116.5,221.5 128.5,253.5 143.5,258.5 
			131.5,231.5 121.8,218.4 121.1,205.7 128.1,181.1 105.8,183.8 103.3,161.9 112.9,140 103.4,153.2 100.4,126.1 80.4,121.1 
			95.4,141.1 98.5,163.5 92.1,187.1 72.1,187.1 78.5,203.5 		"/>
		<polygon class="st0" points="90,360 85,370 95,375 		"/>
		<path class="st0" d="M148.2,78.4L140,97.9l18.9-10.4l15,12.1l-7.1-25l26.1-1.7v-15l-20,7.1V52.1l-16.4-1.5l-7.5,1.1l2.7,17.3
			l-18.9,3.4l-13.2,14.5L148.2,78.4z M191.3,73l-24.4,1.6l0-0.1L191.3,73z"/>
		<polygon class="st0" points="160,480 150,500 180,500 185,475 		"/>
		<polygon class="st0" points="95,345 85,350 90,360 		"/>
		<rect x="825" y="605" class="st0" width="15" height="10"/>
		<polygon class="st0" points="1027.1,52.1 1023.5,38.5 1003.5,28.5 1007.1,47.1 1008.5,56.5 1032.1,67.1 		"/>
		<polygon class="st0" points="1098.9,124.6 1122.5,136 1115.4,123.1 1088.3,120.2 1097.9,112.1 1105,80 1073.1,84.6 1074.6,118.2 
			1058.1,109.6 1044.6,93.1 1055.1,119.2 1072.1,117.9 1062.1,127.9 1083.5,121.5 		"/>
		<polygon class="st0" points="1123.5,283.5 1103.5,276.5 1105,300 1130.4,298.9 		"/>
		<polygon class="st0" points="983.5,76.5 985,52.9 956.5,56.5 947.9,80 948.3,109 980,107.1 		"/>
		<polygon class="st0" points="1120,35 1121.9,24.6 1108.4,27.3 1106.5,42.7 		"/>
		<polygon class="st0" points="1141.1,65.4 1126.8,45.4 1120,35 1120,55 		"/>
		<polygon class="st0" points="1100,55 1106.5,42.7 1077.3,51.5 1075,60 		"/>
		<polygon class="st0" points="1125,80 1125,100 1147.1,105 1144.6,86.9 		"/>
		<polygon class="st0" points="1087.1,172.9 1089,193.3 1081.9,225.4 1111.9,220.4 1105.4,191.8 1128.5,203.5 1117.1,180 
			1125.6,149.4 1098.5,156.5 1080,150 1055,150 1060,167.9 		"/>
		<polygon class="st0" points="1125,520 1095,525 1100,500 1080,500 1085,525 1085,535 1065,540 1055,565 1080,565 1103.5,563.5 
			1130.6,570.6 1123.5,543.5 		"/>
		<polygon class="st0" points="1120,480 1095,475 1100,500 1130,500 		"/>
		<rect x="1080" y="465" class="st0" width="15" height="10"/>
		<polygon class="st0" points="1124.6,441.9 1130.1,430.1 1101.9,424.6 1100,445 		"/>
		<polygon class="st0" points="1247.1,127.9 1240,107.9 1211,103.3 1217,124.9 1215.4,158.1 1206.8,185.4 1245,180 1252.1,152.9 
			1272.1,160 1263.5,131.5 		"/>
		<polygon class="st0" points="1190,365 1185,380 1195,375 1195,365 		"/>
		<polygon class="st0" points="1146.5,391.5 1145,370 1175,365 1173.5,336.5 1146.6,336.8 1111,333.3 1116.5,361.5 1086.5,356.5 
			1086.5,383.5 1121.1,385.4 		"/>
		<polygon class="st0" points="1115,460 1140,460 1144.6,431.9 1124.6,441.9 		"/>
		<polygon class="st0" points="1044.6,81.1 1049.6,61.1 1053.5,51.5 1041.6,58.2 1041.6,68.2 1032.1,67.1 1033.2,76.6 1025.7,87.6 
			1044.6,93.1 1035,75 		"/>
		<polygon class="st0" points="1125,240 1140,220 1111.9,220.4 1103.5,248.5 		"/>
		<polygon class="st0" points="1094.1,260 1102.1,260 1103.5,248.5 1087.1,245 		"/>
		<polygon class="st2" points="60,0 40,0 50.6,30.6 62.1,27.1 		"/>
		<polygon class="st2" points="100,0 80,0 66.5,16.5 86.5,16.5 		"/>
		<polygon class="st2" points="180,0 160,0 157.9,27.1 172.9,27.1 		"/>
		<path class="st2" d="M303.5,28.5v16.2l6.9-6.6L320,20l23.5-8.5l25,10L360,0h-20h-20h-20h-20l7.1,15L303.5,28.5z M310.5,38
			L310.5,38L310.5,38L310.5,38z"/>
		<polygon class="st2" points="440,0 420,0 410,25 435,20 460,20 460,0 		"/>
		<polygon class="st2" points="580,0 560,0 555,10 580,20 		"/>
		<polygon class="st2" points="700,0 700,20 725,10 720,0 		"/>
		<polygon class="st2" points="870,25 860,0 840,0 820,0 820,20 845,20 		"/>
		<polygon class="st2" points="980,0 960,0 940,0 920,0 910,25 931.5,16.5 948.3,14.8 971.8,18.4 		"/>
		<polygon class="st2" points="1120,0 1100,0 1108.4,27.3 1121.9,24.6 		"/>
		<polygon class="st2" points="1220,0 1222.5,25.2 1229.4,30.6 1240,0 		"/>
		<polygon class="st2" points="47.1,52.1 50.6,30.6 23.5,28.5 0,20 0,40 23.5,58.5 		"/>
		<polygon class="st2" points="149,51.7 150.4,28.2 120.4,28.2 130.1,50.1 132.8,72.4 151.7,69 		"/>
		<polygon class="st2" points="216.5,53.5 211.5,33.5 196.5,28.5 200,50 		"/>
		<polygon class="st2" points="228.4,65.1 248.3,62.1 251.8,61.6 260.4,38.1 268.5,16.5 240,30 231.9,51.6 		"/>
		<polygon class="st2" points="650,40 665,15 640,30 615,15 630,40 640,50 		"/>
		<polygon class="st2" points="1256.5,28.5 1229.4,30.6 1237.9,52.1 1256.5,58.5 1280,40 1280,20 		"/>
		<polygon class="st2" points="490,45 505,55 515,55 530,40 555,35 555,10 545,15 540,0 520,0 525,30 500,30 480,25 460,20 465,40 
			465,60 493.5,56.5 		"/>
		<polygon class="st2" points="815,40 820,20 800,25 780,30 755,30 760,0 740,0 735,15 725,10 725,35 750,40 765,55 775,55 790,45 
			786.5,56.5 815,60 		"/>
		<polygon class="st2" points="906.5,43.5 911.5,63.5 926.5,63.5 927.9,40 		"/>
		<polygon class="st2" points="1023.5,38.5 1027.1,52.1 1032.1,67.1 1041.6,68.2 1041.6,58.2 1053.5,51.5 1077.3,51.5 1077.3,31.5 
			1058.9,35.4 1043.5,38.5 		"/>
		<polygon class="st2" points="1146.5,21.5 1160,0 1140,0 1125.4,21.9 		"/>
		<polygon class="st2" points="1141.1,65.4 1161.1,75.4 1151.5,53.5 1126.8,45.4 		"/>
		<polygon class="st2" points="1212.3,44.6 1182.7,56.5 1178.1,79.6 1206.6,73.2 		"/>
		<polygon class="st2" points="503.5,66.5 508.5,56.5 493.5,56.5 483.5,76.5 		"/>
		<polygon class="st2" points="640,70 660,75 676.5,76.5 675,60 675,35 650,40 650,55 640,50 630,55 630,40 605,35 605,60 600,80 
			620,75 		"/>
		<polygon class="st2" points="786.5,56.5 771.5,56.5 776.5,66.5 796.5,76.5 		"/>
		<polygon class="st2" points="1032.1,67.1 1008.5,56.5 1016.7,78.1 1004.6,98.1 1025.7,87.6 1033.2,76.6 		"/>
		<polygon class="st2" points="251.8,61.6 251.9,61.6 251.9,61.6 251.8,61.6 251.8,61.6 		"/>
		<polygon class="st2" points="523.5,103.5 527.1,137.1 547.1,132.1 547.1,112.1 536.5,81.5 560,90 555,60 526.5,56.5 511.5,56.5 
			516.5,66.5 503.5,66.5 500,100 		"/>
		<polygon class="st2" points="571.5,108.5 561.5,123.5 560,140 561.5,156.5 569.6,171.8 600,180 595,160 630,160 630,140 595,140 
			595,120 595,100 600,80 580,85 560,90 560,117.1 		"/>
		<polygon class="st2" points="741.9,104.6 740.8,131.2 761.9,136.7 761.9,104.6 780,100 776.5,66.5 763.5,66.5 768.5,56.5 
			753.5,56.5 725,55 724.6,81.9 748.2,78.4 		"/>
		<polygon class="st2" points="929.6,186.9 929.2,163.8 904.6,156.9 914.6,186.9 		"/>
		<polygon class="st2" points="850.4,186.9 855.4,161.9 831.8,165.4 835.4,176.9 		"/>
		<polygon class="st2" points="796.5,76.5 805,100 780,100 771.5,128.5 761.5,143.5 760,160 761.5,183.5 767.9,207.1 789.4,210.6 
			796.5,183.5 795,160 821.5,163.5 816.5,138.5 790,140 800,120 825,115 825,105 840,105 836.5,111.5 825,115 816.5,138.5 
			832.9,135 857.9,132.9 852.9,107.9 860,95 870,80 845,85 845,60 815,60 820,85 		"/>
		<polygon class="st2" points="880,160 881.5,136.5 857.9,132.9 855.4,161.9 		"/>
		<polygon class="st2" points="850.4,186.9 865,210 885,210 905,205 914.6,186.9 880,190 		"/>
		<polygon class="st2" points="36.5,84.4 40,112.9 67.1,112.9 60,97.9 		"/>
		<polygon class="st2" points="680.4,148.2 650,140 650,160 681.9,164.6 680,180 713.2,178.4 716.5,166.5 714,144.6 		"/>
		<polygon class="st2" points="701.9,102.5 696.5,76.5 676.5,76.5 675,92.9 		"/>
		<polygon class="st2" points="948.3,129 956.5,143.5 972.9,152.1 969.4,130.6 		"/>
		<polygon class="st2" points="980,107.1 969.4,130.6 996.5,123.5 1004.6,98.1 		"/>
		<polygon class="st2" points="1240,82.9 1212.9,87.9 1211,103.3 1240,107.9 		"/>
		<polygon class="st2" points="0,120 0,140 0,160 20,165 20,135 40,140 40,112.9 12.9,107.9 		"/>
		<polygon class="st2" points="217.5,126 244.6,143.1 229.9,118.8 203.3,114.8 		"/>
		<polygon class="st2" points="283.5,153.5 300,150 320,140 328.5,123.5 321.5,110.6 310,107.1 287.1,107.1 292.1,132 292.1,132 
			287.1,107.1 292.1,132.1 		"/>
		<polygon class="st2" points="1055.1,119.2 1040.4,141.1 1062.1,127.9 1072.1,117.9 		"/>
		<polygon class="st2" points="1211,103.3 1189.6,111.8 1183.5,133.5 1217,124.9 		"/>
		<polygon class="st2" points="1240,107.9 1247.1,127.9 1263.5,131.5 1272.1,160 1280,160 1280,140 1280,120 1267.1,107.9 		"/>
		<polygon class="st2" points="162.7,149.1 171.8,158.4 176.5,131.5 156.9,135.4 		"/>
		<polygon class="st2" points="193,123 193,122.9 192.9,122.9 192.9,123.1 		"/>
		<polygon class="st2" points="1098.5,156.5 1125.6,149.4 1122.5,136 1098.9,124.6 1083.5,121.5 1062.1,127.9 1055,150 1080,150 		
			"/>
		<polygon class="st2" points="98.5,163.5 95.4,141.1 80.4,121.1 67.1,112.9 68.5,136.5 68.5,163.5 72.1,187.1 92.1,187.1 		"/>
		<polygon class="st2" points="445,175 445,165 440,140 460,140 455,115 440,115 440,105 455,105 455,115 480,120 490,140 460,140 
			455,165 485,160 483.5,183.5 490.6,210.6 512.1,207.1 518.5,183.5 520,160 518.5,143.5 508.5,128.5 500,100 475,100 483.5,76.5 
			460,85 465,60 435,60 435,85 410,80 420,100 420,115 420,135 395,135 400,160 375,155 351.5,163.5 350,185 370,185 375,205 
			395,205 415,205 425,180 		"/>
		<polygon class="st2" points="463.5,238.5 487.1,232.1 490.6,210.6 463.5,203.5 440,205 415,205 422.1,232.1 443.5,238.5 		"/>
		<polygon class="st2" points="569.6,171.8 549.6,171.8 544.9,189.9 578.1,188.3 		"/>
		<polygon class="st2" points="708.5,223.5 710.6,250.6 732.1,247.1 738.5,223.5 738.5,196.5 733.2,178.4 713.2,178.4 708.5,196.5 
					"/>
		<polygon class="st2" points="816.5,203.5 789.4,210.6 792.9,232.1 816.5,238.5 836.5,238.5 857.9,232.1 865,210 840,205 		"/>
		<polygon class="st2" points="1202.9,252.9 1230,260 1228.9,245.4 1202.2,240.3 		"/>
		<polygon class="st2" points="1196.5,244.4 1196.5,271.5 1211.5,281.5 1202.9,252.9 		"/>
		<polygon class="st2" points="360,210 340,210 320,220 310,240 310,260 335,260 365,260 360,235 		"/>
		<polygon class="st2" points="422.1,232.1 398.5,218.5 410.6,245.6 430.6,250.6 		"/>
		<polygon class="st2" points="660,225 660,195 640,190 620,195 625,225 613.5,216.5 613.5,248.5 632.1,252.1 640,257.1 
			652.9,252.1 680,247.1 680,220 		"/>
		<polygon class="st2" points="869.4,245.6 881.5,218.5 857.9,232.1 849.4,250.6 		"/>
		<polygon class="st2" points="410.6,245.6 383.5,238.5 392.1,267.1 410.6,270.6 		"/>
		<polygon class="st2" points="578.1,279.6 603.5,278.5 613.5,248.5 579.6,253.2 		"/>
		<polygon class="st2" points="680,277.1 707.1,272.1 710.6,250.6 680,247.1 		"/>
		<polygon class="st2" points="887.9,267.1 896.5,238.5 869.4,245.6 869.4,270.6 		"/>
		<polygon class="st2" points="970,260 970,240 960,220 940,210 920,210 920,235 915,260 945,260 		"/>
		<polygon class="st2" points="75,235 80,220 78.5,203.5 72.1,187.1 -26.1,419.1 45,200 13.5,196.5 23.5,216.5 50,220 50,240 
			40,260 35,280 47.9,280 56.5,251.5 		"/>
		<polygon class="st2" points="247.1,185.1 218.1,196.8 196.1,191.8 207.7,202.7 204.6,223.1 184.6,233.1 185,250 200,245 200,255 
			185,255 185,250 160,245 150.4,231.9 154.3,205.3 121.1,205.7 121.8,218.4 131.5,231.5 143.5,258.5 165,260 156.5,283.5 180,275 
			175,300 205,300 205,275 230,280 220,260 220,245 220,225 245,225 240,205 265,205 288.5,196.5 290,175 273.5,176.5 272.1,160 
			255.2,161.6 255.2,161.6 255.3,161.7 		"/>
		<polygon class="st2" points="392.1,267.1 365,260 370,285 355,305 387.1,292.9 397.1,280 		"/>
		<polygon class="st2" points="1123.5,283.5 1115,260 1140,260 1148.5,231.5 1158.5,216.5 1158.5,203.5 1157.1,180 1117.1,180 
			1128.5,203.5 1105.4,191.8 1111.9,220.4 1140,220 1125,240 1103.5,248.5 1102.1,260 1094.1,260 1083.5,283.5 1076.5,303.5 
			1105,300 1103.5,276.5 		"/>
		<polygon class="st2" points="1056.5,226.5 1058.5,241.5 1087.1,245 1081.9,225.4 		"/>
		<polygon class="st2" points="1060,167.9 1055,150 1035,155 1015,160 1010,175 990,175 991.5,196.5 1010,205 1027.9,192.9 
			1056.5,194.4 		"/>
		<polygon class="st2" points="1187.1,247.9 1187.1,227.9 1167.1,222.9 1163.5,256.5 1140,260 1143.5,288.5 1155.4,283.1 
			1153.5,293.5 1173.5,293.5 1198.1,295.4 1196.5,271.5 1175.4,273.1 		"/>
		<polygon class="st2" points="0,280 0,300 10,305 10,320 35,325 35,300 35,280 20,285 		"/>
		<polygon class="st2" points="140,292.1 131.5,303.5 146.5,303.5 156.5,283.5 		"/>
		<polygon class="st2" points="892.9,292.9 925,305 910,285 915,260 887.9,267.1 882.9,280 		"/>
		<polygon class="st2" points="1130.4,298.9 1143.5,294.3 1143.5,288.5 1123.5,283.5 		"/>
		<polygon class="st2" points="298.5,291.5 280,295 270,315 298.5,311.5 		"/>
		<polygon class="st2" points="578.5,316.5 568.5,291.5 543.5,281.5 548.5,311.5 		"/>
		<polygon class="st2" points="736.5,281.5 711.5,291.5 701.5,316.5 731.5,311.5 		"/>
		<polygon class="st2" points="872.9,307.9 856.5,301.5 836.5,301.5 812.9,307.9 809.4,329.4 836.5,331.5 860,330 860,360 860,390 
			836.5,388.5 809.4,390.6 812.9,412.1 836.5,418.5 856.5,418.5 872.9,412.1 869.4,430.6 892.9,427.1 901.5,403.5 900,380 880,385 
			880,360 880,335 900,340 901.5,316.5 892.9,292.9 869.4,289.4 		"/>
		<polygon class="st2" points="995,295 981.5,291.5 981.5,311.5 1010,315 		"/>
		<polygon class="st2" points="1126.5,413.6 1093.4,408.2 1101.9,424.6 1130.1,430.1 		"/>
		<polygon class="st2" points="1121.5,307.2 1130.4,298.9 1105,300 1101.5,316.5 1087.9,332.9 1111,333.3 		"/>
		<polygon class="st2" points="1173.5,336.5 1175,365 1166.9,394.6 1146.5,391.5 1153.6,413.6 1160.4,413.2 1170,400 1195,395 
			1195,375 1185,380 1190,365 1185,345 1178.1,315.4 1161.6,311.8 		"/>
		<polygon class="st2" points="1245,325 1270,320 1270,310 1280,300 1280,280 1268.5,293.5 1240,290 1245,310 		"/>
		<polygon class="st2" points="0,340 25,345 10,320 0,320 		"/>
		<polygon class="st2" points="328.5,311.5 320,335 295,340 270,335 280,360 270,385 295,380 320,385 328.5,408.5 340,410 340,390 
			360,385 360,360 360,335 340,330 340,310 		"/>
		<polygon class="st2" points="640,330 663.5,331.5 690.6,329.4 687.1,307.9 663.5,301.5 640,300 616.5,301.5 592.9,307.9 
			589.4,329.4 616.5,331.5 		"/>
		<polygon class="st2" points="951.5,311.5 940,310 940,330 920,335 920,360 920,385 940,390 940,410 951.5,408.5 960,385 985,380 
			1010,385 1000,360 1010,335 985,340 960,335 		"/>
		<polygon class="st2" points="1280,340 1280,320 1270,320 1255,345 		"/>
		<polygon class="st2" points="85,350 60,340 60,360 60,380 85,370 90,360 		"/>
		<polygon class="st2" points="572.9,360 577.9,387.1 589.4,390.6 592.9,360 589.4,329.4 577.9,332.9 		"/>
		<polygon class="st2" points="809.4,329.4 797.9,332.9 792.9,360 797.9,387.1 809.4,390.6 812.9,360 		"/>
		<polygon class="st2" points="1087.9,332.9 1070,340 1050,335 1060,360 1050,385 1065,380 1086.5,383.5 1086.5,356.5 		"/>
		<polygon class="st2" points="180,380 205,380 230,385 220,360 230,335 205,340 180,340 180,360 		"/>
		<polygon class="st2" points="467.1,387.1 480,375 487.1,355 482.1,332.9 470.6,329.4 467.1,360 		"/>
		<polygon class="st2" points="570,360 575,340 550,340 550,360 550,380 575,380 		"/>
		<polygon class="st2" points="690.6,390.6 702.1,387.1 707.1,360 702.1,332.9 690.6,329.4 687.1,360 		"/>
		<polygon class="st2" points="730,340 705,340 710,360 705,380 730,380 730,360 		"/>
		<polygon class="st2" points="770,380 768.5,408.5 763.5,438.5 788.5,428.5 798.5,403.5 795,380 790,360 795,340 798.5,316.5 
			788.5,291.5 763.5,281.5 768.5,311.5 770,340 770,360 		"/>
		<polygon class="st2" points="1195,375 1220,380 1225,360 1230,340 1205,345 1195,365 		"/>
		<polygon class="st2" points="0,380 0,400 10,400 25,375 		"/>
		<polygon class="st2" points="523.5,403.5 513.1,375.4 510,360 510,340 511.5,311.5 516.5,281.5 491.5,291.5 481.5,316.5 485,340 
			490,355 489.6,366.8 491.5,396.5 		"/>
		<polygon class="st2" points="640,390 616.5,388.5 589.4,390.6 592.9,412.1 616.5,418.5 640,420 663.5,418.5 687.1,412.1 
			690.6,390.6 663.5,388.5 		"/>
		<polygon class="st2" points="1280,380 1255,375 1270,400 1280,400 		"/>
		<polygon class="st2" points="35,395 10,400 10,415 0,420 0,440 20,435 40,440 35,420 		"/>
		<polygon class="st2" points="143.5,258.5 128.5,253.5 132.1,292.1 140,292.1 		"/>
		<polygon class="st2" points="116.5,221.5 98.1,220.4 103.1,245.4 128.5,253.5 		"/>
		<polygon class="st2" points="175,400 180,380 160,385 140,390 115,390 110,360 115,330 140,330 160,335 180,340 175,320 175,300 
			146.5,303.5 150,315 135,305 125.7,305 128.5,303.5 132.1,292.1 108.5,283.5 112.1,312.1 124.4,305.7 108.5,323.5 83.5,328.5 
			85,350 95,345 90,360 95,375 85,370 85,395 110,400 125,415 135,415 150,405 146.5,416.5 175,420 		"/>
		<polygon class="st2" points="280,425 298.5,428.5 298.5,408.5 270,405 		"/>
		<polygon class="st2" points="407.1,412.1 423.5,418.5 440,417.1 455,407.1 467.1,387.1 443.5,388.5 420,390 420,360 420,330 
			443.5,331.5 470.6,329.4 467.1,307.9 443.5,301.5 423.5,301.5 407.1,307.9 410.6,289.4 387.1,292.9 378.5,316.5 380,340 400,335 
			400,360 400,385 380,380 378.5,403.5 387.1,427.1 410.6,430.6 		"/>
		<polygon class="st2" points="547.1,437.1 568.5,428.5 578.5,403.5 552.1,407.1 		"/>
		<polygon class="st2" points="701.5,403.5 711.5,428.5 736.5,438.5 731.5,408.5 		"/>
		<polygon class="st2" points="981.5,428.5 1000,425 1010,405 981.5,408.5 		"/>
		<polygon class="st2" points="146.5,416.5 131.5,416.5 136.5,426.5 156.5,436.5 		"/>
		<polygon class="st2" points="397.1,440 387.1,427.1 355,415 370,435 365,460 392.1,452.9 		"/>
		<polygon class="st2" points="1124.6,441.9 1144.6,431.9 1151.7,424 1130.1,430.1 		"/>
		<polygon class="st2" points="1280,440 1280,420 1270,415 1270,400 1245,395 1245,420 1240,440 1260,435 		"/>
		<polygon class="st2" points="40,440 45,460 45,480 45,500 10,500 10,520 45,520 40,540 72.1,532.9 78.5,516.5 80,500 78.5,483.5 
			68.5,468.5 80,477.1 80,450 60,445 		"/>
		<polygon class="st2" points="123.5,426.5 128.5,416.5 113.5,416.5 85,420 80,450 103.5,441.5 92.9,472.1 92.9,492.1 112.9,497.1 
			116.5,463.5 140,460 136.5,426.5 		"/>
		<polygon class="st2" points="887.9,452.9 910,460 910,435 925,415 892.9,427.1 882.9,440 		"/>
		<polygon class="st2" points="1124.6,441.9 1100,445 1101.9,424.6 1075,420 1075,445 1050,440 1060,460 1060,475 1060,495 
			1035,495 1040,520 1015,515 991.5,523.5 990,545 1010,545 1015,565 1035,565 1055,565 1065,540 1085,535 1085,525 1080,500 
			1100,500 1095,475 1080,475 1080,465 1095,465 1095,475 1120,480 1130,500 1100,500 1095,525 1125,520 1123.5,543.5 1130.6,570.6 
			1152.1,567.1 1158.5,543.5 1160,520 1158.5,503.5 1148.5,488.5 1140,460 1115,460 		"/>
		<polygon class="st2" points="1163.5,463.5 1167.1,497.1 1187.1,492.1 1187.1,472.1 1176.5,441.5 1200,450 1195,420 1166.5,416.5 
			1155,415 1156.5,426.5 1144.6,431.9 1140,460 		"/>
		<polygon class="st2" points="1211.5,468.5 1201.5,483.5 1200,500 1201.5,516.5 1207.9,532.9 1240,540 1235,520 1270,520 1270,500 
			1235,500 1235,480 1235,460 1240,440 1220,445 1200,450 1200,477.1 		"/>
		<polygon class="st2" points="360,480 365,460 335,460 310,460 310,480 316.5,496.5 336.5,496.5 363.5,496.5 		"/>
		<polygon class="st2" points="410.6,474.4 410.6,449.4 392.1,452.9 383.5,481.5 		"/>
		<polygon class="st2" points="572.9,447.9 569.4,469.4 600,472.9 600,442.9 		"/>
		<polygon class="st2" points="680,442.9 680,472.9 710.6,469.4 707.1,447.9 		"/>
		<polygon class="st2" points="869.4,474.4 896.5,481.5 887.9,452.9 869.4,449.4 		"/>
		<polygon class="st2" points="422.1,487.9 430.6,469.4 410.6,474.4 398.5,501.5 		"/>
		<polygon class="st2" points="640,462.9 627.1,467.9 600,472.9 600,500 620,495 620,525 640,530 660,525 660,495 680,500 
			680,472.9 652.9,467.9 		"/>
		<polygon class="st2" points="857.9,487.9 881.5,501.5 869.4,474.4 849.4,469.4 		"/>
		<polygon class="st2" points="916.5,508.5 932.9,517.1 929.8,482.5 936.9,450.4 910,460 911.5,483.5 		"/>
		<polygon class="st2" points="440,515 463.5,516.5 490.6,509.4 487.1,487.9 463.5,481.5 443.5,481.5 422.1,487.9 415,515 		"/>
		<polygon class="st2" points="541.5,496.5 541.5,523.5 547.9,547.1 567.9,547.1 571.5,523.5 571.5,496.5 569.4,469.4 547.9,472.9 
					"/>
		<polygon class="st2" points="738.5,523.5 738.5,496.5 732.1,472.9 710.6,469.4 708.5,496.5 708.5,523.5 712.1,547.1 732.1,547.1 
					"/>
		<polygon class="st2" points="816.5,481.5 792.9,487.9 789.4,509.4 816.5,516.5 840,515 865,515 857.9,487.9 836.5,481.5 		"/>
		<polygon class="st2" points="155,520 185,525 180,500 150,500 160,480 185,475 185,465 200,465 200,475 185,475 180,500 200,500 
			195,525 195,535 215,540 223.5,561.5 243.5,556.5 265,560 270,545 290,545 288.5,523.5 265,515 240,520 245,495 220,495 220,475 
			220,460 230,440 205,445 205,420 175,420 180,445 156.5,436.5 165,460 140,460 131.5,488.5 121.5,503.5 120,520 121.5,543.5 
			127.9,567.1 149.4,570.6 156.5,543.5 		"/>
		<polygon class="st2" points="928.5,556.5 930,535 910,535 905,515 885,515 865,515 855,540 835,545 835,555 840,580 820,580 
			825,605 840,605 840,615 825,615 825,605 810,600 795,580 820,580 825,555 795,560 796.5,536.5 789.4,509.4 767.9,512.9 
			761.5,536.5 763.1,555.4 771.2,570.8 783.1,595.4 786.9,624.6 810,620 796.5,643.5 820,635 815,660 845,660 845,635 870,640 
			860,620 860,605 860,585 885,585 880,560 905,565 		"/>
		<polygon class="st2" points="1181.5,556.5 1181.5,583.5 1187.9,607.1 1209.4,610.6 1211.5,583.5 1211.5,556.5 1207.9,532.9 
			1187.9,532.9 		"/>
		<polygon class="st2" points="68.5,583.5 70.6,610.6 92.1,607.1 98.5,583.5 98.5,556.5 92.1,532.9 72.1,532.9 68.5,556.5 		"/>
		<polygon class="st2" points="200,565 176.5,563.5 149.4,570.6 152.9,592.1 176.5,598.5 195.4,596.9 213.9,583.4 223.5,561.5 		"/>
		<polygon class="st2" points="1080,565 1055,565 1062.1,592.1 1083.5,598.5 1103.5,598.5 1127.1,592.1 1130.6,570.6 1103.5,563.5 
					"/>
		<polygon class="st2" points="20,585 20,555 0,560 0,580 0,600 12.9,612.1 40,607.1 40,580 		"/>
		<polygon class="st2" points="1000,570 980,570 960,580 950,600 950,620 975,620 1005,620 1000,595 		"/>
		<polygon class="st2" points="1050.6,605.6 1070.6,610.6 1062.1,592.1 1038.5,578.5 		"/>
		<polygon class="st2" points="1280,600 1280,580 1280,560 1260,555 1260,585 1240,580 1240,607.1 1267.1,612.1 		"/>
		<polygon class="st2" points="40,637.1 67.1,632.1 70.6,610.6 40,607.1 		"/>
		<polygon class="st2" points="330,620 330,600 320,580 300,570 285,570 290,595 280,620 305,620 		"/>
		<polygon class="st2" points="595,600 595,580 630,580 630,560 595,560 600,540 567.9,547.1 561.5,563.5 560,580 561.5,596.5 
			571.5,606.5 560,602.9 555,630 571.5,626.5 600,622.9 595,610 		"/>
		<polygon class="st2" points="1032.1,627.1 1050.6,630.6 1050.6,605.6 1023.5,598.5 		"/>
		<polygon class="st2" points="1240,637.1 1240,607.1 1209.4,610.6 1212.9,632.1 		"/>
		<polygon class="st2" points="483.5,643.5 475,620 500,620 508.5,591.5 518.5,576.5 520,560 518.5,536.5 512.1,512.9 490.6,509.4 
			483.5,536.5 485,560 455,555 460,580 490,580 480,600 455,605 455,615 440,615 440,605 455,605 460,580 440,580 445,555 445,545 
			425,540 415,515 398.5,516.5 387.1,512.9 381.6,541.1 358.1,544.6 353.5,571.5 378.1,569.6 400,560 395,585 420,585 420,605 
			420,620 410,640 435,635 435,660 465,660 460,635 		"/>
		<polygon class="st2" points="547.1,607.9 547.1,587.9 527.1,582.9 523.5,616.5 500,620 503.5,653.5 516.5,653.5 511.5,663.5 
			526.5,663.5 545,660 555,630 536.5,638.5 		"/>
		<polygon class="st2" points="703.1,610.4 708.1,595.4 715,580 718.5,563.5 712.1,547.1 680,540 685,560 650,560 650,580 685,580 
			685,600 685,620 680,640 700,635 715.4,633.1 708.8,610.4 		"/>
		<polygon class="st2" points="715.4,633.1 725,660 751.9,664.6 766.9,664.6 763.8,654.2 737.3,642.7 		"/>
		<polygon class="st2" points="733.5,592.3 728.8,615.4 760,620 756.2,590.8 		"/>
		<polygon class="st2" points="760,620 763.8,654.2 778.4,653.2 786.9,624.6 		"/>
		<polygon class="st2" points="1010,645 995,665 1021.6,651.8 1037.1,640 1032.1,627.1 1005,620 		"/>
		<polygon class="st2" points="270,645 280,620 258.1,629.6 244.6,641.1 252.9,652.9 285,665 		"/>
		<polygon class="st2" points="493.5,663.5 508.5,663.5 503.5,653.5 483.5,643.5 		"/>
		<polygon class="st2" points="643.5,648.5 627.1,635 636.7,661.9 643.5,668.5 650,665 650,680 675,685 675,660 680,640 660,645 		
			"/>
		<polygon class="st2" points="778.4,653.2 771.5,663.5 786.5,663.5 796.5,643.5 		"/>
		<polygon class="st2" points="96.5,641.5 71.5,651.5 61.5,676.5 91.5,671.5 		"/>
		<polygon class="st2" points="150.9,663.7 145.4,646.8 123.5,641.5 125.4,666.8 118.8,690.8 147.4,692.2 		"/>
		<polygon class="st2" points="252.9,652.9 229.4,649.4 234.8,668.3 220.3,662.2 227.4,692.2 249,688.3 263.5,696.5 261.5,676.5 		
			"/>
		<polygon class="st2" points="341.5,651.5 341.5,671.5 370,675 360,655 		"/>
		<polygon class="st2" points="465,680 460,700 480,695 500,690 525,690 520,720 540,720 545,705 555,710 550,685 530,680 515,665 
			505,665 490,675 493.5,663.5 465,660 		"/>
		<polygon class="st2" points="790,675 775,665 765,665 750,680 725,685 725,710 735,705 740,720 760,720 755,690 780,690 800,695 
			820,700 815,680 815,660 786.5,663.5 		"/>
		<polygon class="st2" points="910,675 938.5,671.5 938.5,651.5 920,655 		"/>
		<polygon class="st2" points="1161.2,665.8 1161.6,641.8 1146.6,651.8 1132.6,667.2 		"/>
		<polygon class="st2" points="1208.5,651.5 1183.5,641.5 1193.5,671.5 1218.5,676.5 		"/>
		<polygon class="st2" points="23.5,661.5 0,680 0,700 23.5,691.5 50.6,689.4 47.1,667.9 		"/>
		<polygon class="st2" points="629.6,681.9 615,705 640,690 665,705 650,680 640,670 		"/>
		<polygon class="st2" points="1012.9,682.9 1032.9,687.9 1031,663.3 1041.6,641.8 1021.6,651.8 1009.6,666.8 		"/>
		<polygon class="st2" points="1232.9,667.9 1229.4,689.4 1256.5,691.5 1280,700 1280,680 1256.5,661.5 		"/>
		<polygon class="st2" points="40,720 60,720 62.1,692.9 50.6,689.4 		"/>
		<polygon class="st2" points="65,700 80,720 100,720 85,700 		"/>
		<polygon class="st2" points="320,695 311.5,671.5 300,670 300,690 280,695 280,720 300,720 320,720 340,720 360,720 370,695 
			345,700 		"/>
		<polygon class="st2" points="410,695 420,720 440,720 460,720 460,700 435,700 		"/>
		<polygon class="st2" points="580,720 580,705 555,710 560,720 		"/>
		<polygon class="st2" points="700,720 720,720 725,710 700,700 		"/>
		<polygon class="st2" points="840,720 860,720 870,695 845,700 820,700 820,720 		"/>
		<polygon class="st2" points="976.5,686.5 980,670 968.5,671.5 960,695 935,700 910,695 920,720 940,720 960,720 980,720 1000,720 
			992.9,682.9 		"/>
		<polygon class="st2" points="1180,720 1200,720 1213.5,696.5 1197.1,692.9 		"/>
		<polygon class="st2" points="1220,720 1240,720 1229.4,689.4 1217.9,692.9 		"/>
	</g>
</g>
<g>
	<polygon class="st3" points="980,107.1 948.3,109 948.3,129 969.4,130.6 	"/>
	<polygon class="st3" points="921.5,83.5 947.9,80 956.5,56.5 926.5,63.5 	"/>
	<polygon class="st3" points="956.5,56.5 985,52.9 1008.5,56.5 1007.1,47.1 983.9,45.4 971.8,18.4 948.3,14.8 956.8,38.4 	"/>
	<polygon class="st3" points="1000,0 980,0 971.8,18.4 1003.5,28.5 	"/>
	<polygon class="st3" points="1058.9,35.4 1060,0 1040,0 1043.5,38.5 	"/>
	<polygon class="st3" points="1075,60 1077.3,51.5 1053.5,51.5 1049.6,61.1 1044.6,81.1 1035,75 1044.6,93.1 1058.1,109.6 
		1074.6,118.2 1073.1,84.6 1105,80 1097.9,112.1 1088.3,120.2 1115.4,123.1 1122.5,136 1148.5,141.5 1152.1,125 1147.1,105 
		1125,100 1125,80 1144.6,86.9 1147.1,105 1168.5,108.5 1169.6,91.9 1161.1,75.4 1141.1,65.4 1120,55 1120,35 1106.5,42.7 1100,55 	
		"/>
	<polygon class="st3" points="23.5,216.5 0,220 0,240 24.6,238.1 	"/>
	<polygon class="st3" points="578.1,188.3 544.9,189.9 543.3,218.1 525.4,218.1 526.5,243.5 546,251.7 554.6,273.2 578.1,279.6 
		579.6,253.2 581.5,216.5 	"/>
	<polygon class="st3" points="108.5,283.5 132.1,292.1 128.5,253.5 103.1,245.4 	"/>
	<polygon class="st3" points="74.6,241.8 56.5,251.5 47.9,280 72.9,280 	"/>
	<polygon class="st3" points="80,312.1 112.1,312.1 108.5,283.5 72.9,280 	"/>
	<polygon class="st3" points="98.1,220.4 83.1,225.4 74.6,241.8 103.1,245.4 	"/>
	<polygon class="st3" points="491.5,396.5 489.6,366.8 480,375 466.5,396.5 455,407.1 447.9,422.1 466.5,428.5 481.5,453.5 
		501.9,454.6 498.8,434.2 527.4,437.8 523.5,403.5 	"/>
	<polygon class="st3" points="227.4,692.2 220,720 240,720 249,688.3 	"/>
	<polygon class="st3" points="198.4,701.8 227.4,692.2 220.3,662.2 200.3,662.2 174.8,668.3 169.4,694.4 	"/>
	<polygon class="st3" points="156.5,694.4 161.9,668.3 150.9,663.7 147.4,692.2 118.8,690.8 120,720 140,720 160,720 180,720 
		169.4,694.4 	"/>
	<polygon class="st3" points="1060,720 1056.5,696.5 1083.5,696.5 1111.7,694.8 1100,720 1120,720 1140,720 1160,720 1164.7,696.5 
		1161.2,665.8 1132.6,667.2 1125,672.9 1130,660 1146.6,651.8 1152.1,632.9 1133.2,634.6 1128.2,609.6 1101.1,604.6 1097.5,638.1 
		1064.4,636.5 1072.9,650 1056.5,641.5 1041.6,641.8 1031,663.3 1032.9,687.9 1040,720 	"/>
	<polygon class="st3" points="150.4,28.2 140,0 120,0 120.4,28.2 	"/>
	<polygon class="st3" points="1077.3,51.5 1106.5,42.7 1108.4,27.3 1077.3,31.5 	"/>
	<polygon class="st3" points="156.5,50.6 172.9,52.1 172.9,65 192.9,57.9 200,50 196.5,28.5 172.9,27.1 157.9,27.1 150.4,28.2 
		149,51.7 	"/>
	<polygon class="st3" points="1218.9,18.1 1200,0 1180,0 1185.7,21.5 	"/>
	<polygon class="st3" points="1151.5,53.5 1146.5,21.5 1125.4,21.9 1140,0 1120,0 1121.9,24.6 1120,35 1126.8,45.4 	"/>
	<polygon class="st3" points="97.5,41.9 63.3,38.1 71.8,61.6 101.1,75.4 	"/>
	<polygon class="st3" points="393.5,56.5 373.2,58.4 376.7,34.8 343.2,33.4 344.6,61.9 318.9,54.6 321.5,83.5 345,87.1 372.1,87.1 
		393.5,78.5 393.6,78.4 393.6,56.6 	"/>
	<polygon class="st3" points="318.8,54.5 303.5,47.6 303.5,47.6 318.9,54.6 	"/>
	<polygon class="st3" points="224.6,160.2 218.1,196.7 196,191.7 196.1,191.8 218.1,196.8 247.1,185.1 255.3,161.7 244.7,143.2 
		244.6,143.2 255.2,161.6 	"/>
	<polygon class="st3" points="303.5,47.6 284.7,53 284.6,53.1 	"/>
	<polygon class="st3" points="292.1,132 292.1,132 287.1,107.1 287.1,107.1 	"/>
	<polygon class="st3" points="166.9,74.5 166.9,74.6 191.3,73 	"/>
	<polygon class="st3" points="363.6,115.6 363.6,115.5 363.5,115.6 	"/>
	<path class="st3" d="M216.5,53.5L213,60l-20-2.1v15l-0.1,0L195,105l-3.5,11.5l1.5,6.5l-16.5,8.5l-4.6,26.9l0.1,0l17.4,0.1l35.2,1.7
		l-7.1-34.2l-14.2-11.2l26.6,3.9l0.1,0.1l35.2,8.7l-12.1-32.1l34,11.7l-13.6-28.6l11.1-25.4l-32.7,8.5l0,0l-23.5,3.5l3.5-13.5
		L240,30V0h-20l-8.5,33.5L216.5,53.5z M237.9,80h5l10.2,15.4l-18.2-1.6L237.9,80z"/>
	<polygon class="st3" points="310.4,38 310.4,38.1 310.5,38 	"/>
	<polygon class="st3" points="1233.5,63.5 1231.1,41.6 1212.3,44.6 1206.6,73.2 	"/>
	<polygon class="st3" points="101.1,75.4 98.5,86.5 119.6,86.9 132.8,72.4 	"/>
	<polygon class="st3" points="1185,95 1203.5,93.5 1206.6,73.2 1178.1,79.6 	"/>
	<polygon class="st3" points="71.8,61.6 50.4,53.1 51.5,76.5 60,97.9 78.5,101.5 83.5,81.5 	"/>
	<polygon class="st3" points="119.6,86.9 118.5,101.5 140,97.9 148.2,78.4 	"/>
	<polygon class="st3" points="701.9,102.5 721.9,109.6 724.6,81.9 696.5,76.5 	"/>
	<polygon class="st3" points="118.5,101.5 97.1,92.9 78.5,101.5 80.4,121.1 100.4,126.1 103.4,153.2 112.9,140 123.5,121.5 	"/>
	<polygon class="st3" points="701.9,102.5 675,92.9 677.1,120 680.4,148.2 714,144.6 712.5,121.1 	"/>
	<polygon class="st3" points="720.8,124.2 732.1,145 747.1,152.1 740.8,131.2 741.9,104.6 721.9,109.6 	"/>
	<polygon class="st3" points="1026.5,122.7 1055.1,119.2 1044.6,93.1 1025.7,87.6 	"/>
	<polygon class="st3" points="972.9,152.1 1000,157.1 996.5,123.5 969.4,130.6 	"/>
	<polygon class="st3" points="716.5,166.5 733.2,165.4 732.1,145 714,144.6 	"/>
	<polygon class="st3" points="855.4,161.9 857.9,132.9 832.9,135 831.8,165.4 	"/>
	<polygon class="st3" points="855.4,161.9 850.4,186.9 880,190 914.6,186.9 904.6,156.9 880,160 	"/>
	<polygon class="st3" points="1157.1,180 1152.1,152.9 1125.6,149.4 1117.1,180 	"/>
	<polygon class="st3" points="162.7,149.1 156.9,135.4 176.5,131.5 188.2,114.6 173.9,99.6 158.9,87.5 140,97.9 131.5,116.5 
		133.4,126.8 112.9,140 103.3,161.9 105.8,183.8 128.1,181.1 121.1,205.7 154.3,205.3 164.4,170.2 	"/>
	<polygon class="st3" points="154.3,205.3 150.4,231.9 184.6,233.1 193.2,199.6 	"/>
	<polygon class="st3" points="188.5,176.5 193.2,199.6 207.7,202.7 196.1,191.8 196,191.7 	"/>
	<polygon class="st3" points="1245,180 1206.8,185.4 1200.4,201.9 1185.4,201.9 1185.4,221.9 1200.8,223.8 1202.2,240.3 
		1228.9,245.4 1233.9,220.4 1272.1,215 1272.1,187.9 1235,195 	"/>
	<polygon class="st3" points="1263.5,243.5 1280,240 1280,220 1272.1,215 	"/>
	<polygon class="st3" points="1217,124.9 1183.5,133.5 1181.8,161.6 1186.8,185.4 1206.8,185.4 1215.4,158.1 	"/>
	<polygon class="st3" points="1089,193.3 1087.1,172.9 1060,167.9 1056.5,194.4 1027.9,192.9 1026.5,221.5 1056.5,226.5 
		1081.9,225.4 	"/>
	<polygon class="st3" points="1025,245 1021.8,265.4 1058.5,263.5 1054.6,295.2 1083.5,283.5 1094.1,260 1087.1,245 1058.5,241.5 	
		"/>
	<polygon class="st3" points="1087.1,245 1103.5,248.5 1111.9,220.4 1081.9,225.4 	"/>
	<polygon class="st3" points="1202.9,252.9 1211.5,281.5 1240,290 1230,260 	"/>
	<polygon class="st3" points="1038.1,309.6 1029.9,290.1 1010.4,281.9 1015,305 	"/>
	<polygon class="st3" points="1153.5,293.5 1143.5,294.3 1141.6,302.6 1121.5,307.2 1111,333.3 1146.6,336.8 1173.5,336.5 
		1161.6,311.8 1178.1,315.4 1173.5,293.5 	"/>
	<polygon class="st3" points="1086.5,383.5 1093.4,408.2 1126.5,413.6 1130.1,430.1 1151.7,424 1153.6,413.6 1146.5,391.5 
		1121.1,385.4 	"/>
	<polygon class="st3" points="1178.1,315.4 1185,345 1190,365 1195,365 1205,345 1203.1,315.4 	"/>
	<polygon class="st3" points="966.5,480.5 997.8,479.7 989.6,453.1 966.5,443.5 936.9,450.4 929.8,482.5 932.9,517.1 960,517.1 	"/>
	<polygon class="st3" points="363.5,496.5 336.5,496.5 336.5,516.5 340,545 335.4,566.9 353.5,571.5 358.1,544.6 363.5,516.5 	"/>
	<polygon class="st3" points="753.1,550.4 736.5,551.5 736.5,571.5 756.2,570.8 	"/>
	<polygon class="st3" points="233.4,603.9 240.4,566.8 213.9,583.4 201.8,605.4 216.5,628.5 234.6,638.2 258.1,629.6 271.9,600.4 	
		"/>
	<polygon class="st3" points="733.5,592.3 736.5,571.5 721.5,571.5 713.5,592.3 708.8,610.4 728.8,615.4 	"/>
	<polygon class="st3" points="783.1,595.4 771.2,570.8 756.2,570.8 756.2,590.8 	"/>
	<polygon class="st3" points="737.3,642.7 763.8,654.2 760,620 728.8,615.4 	"/>
	<polygon class="st3" points="601.1,695.4 629.6,681.9 636.7,661.9 627.1,635 600,622.9 601.1,658.4 	"/>
	<polygon class="st3" points="181.9,655.4 161.9,650.4 161.9,668.3 174.8,668.3 	"/>
</g>
<g>
	<polygon class="st4" points="1043.5,38.5 1058.9,35.4 1060,0 1040,0 1020,0 1000,0 1003.5,28.5 1023.5,38.5 	"/>
	<polygon class="st4" points="1180,0 1185.7,21.5 1218.9,18.1 1200,0 	"/>
	<polygon class="st4" points="1121.9,24.6 1120,35 1126.8,45.4 1125.4,21.9 	"/>
	<polygon class="st4" points="926.5,63.5 921.5,83.5 926.8,105.4 948.3,109 947.9,80 956.5,56.5 956.8,38.4 927.9,40 	"/>
	<polygon class="st4" points="1049.6,61.1 1075,60 1077.3,51.5 1053.5,51.5 	"/>
	<polygon class="st4" points="372.1,87.1 393.5,78.5 393.5,56.5 373.2,58.4 	"/>
	<polygon class="st4" points="1008.5,56.5 1007.1,47.1 1003.5,28.5 971.8,18.4 983.9,45.4 985,52.9 983.5,76.5 980,107.1 
		1004.6,98.1 1016.7,78.1 	"/>
	<polygon class="st4" points="173.9,99.6 195,105 192.9,72.9 166.8,74.6 	"/>
	<polygon class="st4" points="1073.1,84.6 1044.6,81.1 1058.1,109.6 1074.6,118.2 	"/>
	<polygon class="st4" points="1168.5,108.5 1169.6,91.9 1144.6,86.9 1147.1,105 	"/>
	<polygon class="st4" points="234.9,93.8 237.9,80 228.3,65.2 212.9,60 192.9,57.9 192.9,72.9 226.5,76.5 220.4,101.9 203.3,114.8 
		229.9,118.8 265.2,127.5 253.1,95.4 	"/>
	<polygon class="st4" points="1026.5,122.7 1025.7,87.6 1004.6,98.1 996.5,123.5 	"/>
	<polygon class="st4" points="1125,100 1097.9,112.1 1088.3,120.2 1115.4,123.1 	"/>
	<polygon class="st4" points="112.9,140 123.5,121.5 100.4,126.1 103.4,153.2 	"/>
	<polygon class="st4" points="192.9,122.9 217.5,126 203.3,114.8 191.5,116.5 	"/>
	<polygon class="st4" points="156.9,135.4 159.6,111 158.9,87.5 140,97.9 131.5,116.5 133.4,126.8 135.7,149.1 162.7,149.1 	"/>
	<polygon class="st4" points="171.8,158.4 189.4,158.5 192.9,122.9 176.5,131.5 	"/>
	<polygon class="st4" points="105.8,183.8 128.1,181.1 135.7,149.1 103.3,161.9 	"/>
	<polygon class="st4" points="218.1,196.7 247.1,185 255.2,161.6 224.6,160.2 	"/>
	<polygon class="st4" points="1272.1,160 1252.1,152.9 1245,180 1277.1,180 	"/>
	<polygon class="st4" points="1056.5,194.4 1089,193.3 1087.1,172.9 1060,167.9 	"/>
	<polygon class="st4" points="150.4,231.9 184.6,233.1 193.2,199.6 154.3,205.3 	"/>
	<polygon class="st4" points="544.9,189.9 543.3,218.1 581.5,216.5 578.1,188.3 	"/>
	<polygon class="st4" points="1185.4,201.9 1185.4,221.9 1200.8,223.8 1200.4,201.9 	"/>
	<polygon class="st4" points="0,220 0,240 24.6,238.1 23.5,216.5 	"/>
	<polygon class="st4" points="1026.5,221.5 1025,245 1058.5,241.5 1056.5,226.5 	"/>
	<polygon class="st4" points="554.6,273.2 578.1,279.6 579.6,253.2 546,251.7 	"/>
	<polygon class="st4" points="1087.1,245 1058.5,241.5 1058.5,263.5 1094.1,260 	"/>
	<polygon class="st4" points="47.9,280 72.9,280 74.6,241.8 56.5,251.5 	"/>
	<polygon class="st4" points="103.1,245.4 108.5,283.5 132.1,292.1 128.5,253.5 	"/>
	<polygon class="st4" points="1029.9,290.1 1054.6,295.2 1058.5,263.5 1021.8,265.4 	"/>
	<polygon class="st4" points="1153.5,293.5 1143.5,294.3 1141.6,302.6 1161.6,311.8 	"/>
	<polygon class="st4" points="1087.9,332.9 1086.5,356.5 1116.5,361.5 1111,333.3 	"/>
	<polygon class="st4" points="1146.5,391.5 1166.9,394.6 1175,365 1145,370 	"/>
	<polygon class="st4" points="1086.5,383.5 1093.4,408.2 1126.5,413.6 1121.1,385.4 	"/>
	<polygon class="st4" points="447.9,422.1 466.5,428.5 466.5,396.5 455,407.1 	"/>
	<polygon class="st4" points="491.5,396.5 498.8,434.2 527.4,437.8 523.5,403.5 	"/>
	<polygon class="st4" points="311.8,514.6 310.4,543.1 340,545 336.5,516.5 	"/>
	<polygon class="st4" points="358.1,544.6 381.6,541.1 387.1,512.9 363.5,516.5 	"/>
	<polygon class="st4" points="1101.1,604.6 1071.5,611.5 1064.4,636.5 1097.5,638.1 	"/>
	<polygon class="st4" points="1152.1,632.9 1133.2,634.6 1130,660 1146.6,651.8 	"/>
	<polygon class="st4" points="1031,663.3 1056.5,661.5 1056.5,641.5 1041.6,641.8 	"/>
	<polygon class="st4" points="1101.5,658.5 1072.9,650 1083.5,661.5 1112.1,667.9 	"/>
	<polygon class="st4" points="200.3,662.2 198.4,701.8 227.4,692.2 220.3,662.2 	"/>
	<polygon class="st4" points="1132.6,667.2 1132.6,696.5 1164.7,696.5 1161.2,665.8 	"/>
	<polygon class="st4" points="156.5,694.4 147.4,692.2 140,720 160,720 180,720 169.4,694.4 	"/>
	<polygon class="st4" points="220,720 240,720 249,688.3 227.4,692.2 	"/>
	<polygon class="st4" points="1100,720 1120,720 1124.6,694.8 1111.7,694.8 	"/>
</g>
</svg>
